<svg xmlns="http://www.w3.org/2000/svg" width="18" height="18" viewBox="0 0 18 18" fill="none">
<path d="M9 2.25C12.728 2.25 15.75 5.27196 15.75 9C15.75 12.728 12.728 15.75 9 15.75C5.27196 15.75 2.25 12.728 2.25 9C2.25 5.27196 5.27196 2.25 9 2.25Z" fill="#ED1C24" stroke="#CF0910" stroke-width="1.5"/>
<path d="M9 3.25C12.1757 3.25 14.75 5.82427 14.75 9C14.75 12.1757 12.1757 14.75 9 14.75C5.82427 14.75 3.25 12.1757 3.25 9C3.25 5.82427 5.82427 3.25 9 3.25Z" stroke="#A00107" stroke-opacity="0.6" stroke-width="0.5"/>
<path d="M7.3455 12.7575C7.2825 12.7575 7.23 12.7365 7.188 12.6945C7.146 12.6525 7.125 12.6 7.125 12.537V5.7015C7.125 5.5755 7.167 5.4705 7.251 5.3865C7.342 5.2955 7.4505 5.25 7.5765 5.25H9.4455C9.9005 5.25 10.31 5.3585 10.674 5.5755C11.045 5.7925 11.339 6.083 11.556 6.447C11.78 6.811 11.892 7.217 11.892 7.665C11.892 8.113 11.78 8.5225 11.556 8.8935C11.339 9.2575 11.045 9.548 10.674 9.765C10.31 9.982 9.9005 10.0905 9.4455 10.0905H8.406V12.537C8.406 12.6 8.385 12.6525 8.343 12.6945C8.301 12.7365 8.2485 12.7575 8.1855 12.7575H7.3455ZM8.406 8.883H9.4035C9.6205 8.883 9.82 8.8305 10.002 8.7255C10.191 8.6135 10.338 8.4665 10.443 8.2845C10.555 8.0955 10.611 7.889 10.611 7.665C10.611 7.441 10.555 7.238 10.443 7.056C10.338 6.874 10.191 6.7305 10.002 6.6255C9.82 6.5135 9.6205 6.4575 9.4035 6.4575H8.406V8.883Z" fill="white"/>
</svg>