<svg xmlns="http://www.w3.org/2000/svg" width="17" height="16" viewBox="0 0 17 16" fill="none">
<path d="M11.6789 15.0939C12.076 14.1918 12.7532 13.4416 13.6101 12.9547C13.7381 12.8827 13.7381 12.6987 13.6101 12.6267C12.7528 12.1396 12.0753 11.3892 11.6781 10.4867C11.6629 10.4527 11.6382 10.4238 11.607 10.4036C11.5757 10.3833 11.5393 10.3726 11.5021 10.3726C11.4649 10.3726 11.4284 10.3833 11.3972 10.4036C11.366 10.4238 11.3413 10.4527 11.3261 10.4867C10.9288 11.3889 10.2513 12.139 9.39409 12.6259C9.36515 12.6424 9.3411 12.6662 9.32437 12.695C9.30764 12.7238 9.29883 12.7565 9.29883 12.7899C9.29883 12.8232 9.30764 12.8559 9.32437 12.8847C9.3411 12.9135 9.36515 12.9374 9.39409 12.9539C10.2515 13.4411 10.9291 14.1919 11.3261 15.0947C11.3413 15.1286 11.366 15.1575 11.3972 15.1777C11.4284 15.198 11.4649 15.2087 11.5021 15.2087C11.5393 15.2087 11.5757 15.198 11.607 15.1777C11.6382 15.1575 11.6629 15.1286 11.6781 15.0947L11.6789 15.0939Z" fill="white"/>
<path d="M7.15738 9.43052C7.73404 8.08752 8.71742 6.97075 9.96177 6.24572C10.1476 6.13853 10.1476 5.86459 9.96177 5.7574C8.7168 5.03227 7.73297 3.91503 7.15621 2.57141C7.13415 2.52083 7.09827 2.47788 7.05292 2.44774C7.00757 2.4176 6.95468 2.40156 6.90064 2.40156C6.84659 2.40156 6.7937 2.4176 6.74835 2.44774C6.703 2.47788 6.66712 2.52083 6.64506 2.57141C6.0681 3.91459 5.08429 5.03138 3.8395 5.75621C3.79749 5.78078 3.76256 5.81631 3.73826 5.85919C3.71397 5.90207 3.70117 5.95078 3.70117 6.00037C3.70117 6.04996 3.71397 6.09867 3.73826 6.14155C3.76256 6.18443 3.79749 6.21996 3.8395 6.24453C5.08466 6.96997 6.06851 8.08765 6.64506 9.43171C6.66712 9.48229 6.703 9.52525 6.74835 9.55539C6.7937 9.58552 6.84659 9.60156 6.90064 9.60156C6.95468 9.60156 7.00757 9.58552 7.05292 9.55539C7.09827 9.52525 7.13415 9.48229 7.15621 9.43171L7.15738 9.43052Z" fill="white"/>
</svg>