<svg width="10" height="10" viewBox="0 0 10 10" fill="none" xmlns="http://www.w3.org/2000/svg">
    <path
        d="M6.98754 9.43113C7.23573 8.86733 7.65897 8.3985 8.19454 8.09413C8.27454 8.04913 8.27454 7.93413 8.19454 7.88913C7.65871 7.58471 7.23527 7.11569 6.98704 6.55163C6.97754 6.53039 6.9621 6.51236 6.94258 6.49971C6.92306 6.48705 6.9003 6.48032 6.87704 6.48032C6.85378 6.48032 6.83101 6.48705 6.81149 6.49971C6.79197 6.51236 6.77653 6.53039 6.76704 6.55163C6.51872 7.1155 6.09529 7.58434 5.55954 7.88863C5.54145 7.89894 5.52642 7.91385 5.51596 7.93186C5.50551 7.94986 5.5 7.97031 5.5 7.99113C5.5 8.01194 5.50551 8.03239 5.51596 8.05039C5.52642 8.0684 5.54145 8.08331 5.55954 8.09363C6.09545 8.39817 6.51889 8.86738 6.76704 9.43163C6.77653 9.45286 6.79197 9.47089 6.81149 9.48354C6.83101 9.4962 6.85378 9.50293 6.87704 9.50293C6.9003 9.50293 6.92306 9.4962 6.94258 9.48354C6.9621 9.47089 6.97754 9.45286 6.98704 9.43163L6.98754 9.43113Z"
        fill="#ED1C25" />
    <path
        d="M4.16086 5.89286C4.52127 5.05348 5.13589 4.3555 5.9136 3.90236C6.02978 3.83536 6.02978 3.66415 5.9136 3.59716C5.1355 3.14395 4.5206 2.44567 4.16013 1.60591C4.14634 1.5743 4.12392 1.54745 4.09558 1.52862C4.06723 1.50978 4.03418 1.49976 4.0004 1.49976C3.96662 1.49976 3.93356 1.50978 3.90522 1.52862C3.87687 1.54745 3.85445 1.5743 3.84066 1.60591C3.48006 2.4454 2.86518 3.1434 2.08719 3.59641C2.06093 3.61177 2.0391 3.63397 2.02392 3.66077C2.00873 3.68757 2.00073 3.71802 2.00073 3.74901C2.00073 3.78001 2.00873 3.81045 2.02392 3.83725C2.0391 3.86405 2.06093 3.88626 2.08719 3.90161C2.86541 4.35501 3.48032 5.05356 3.84066 5.8936C3.85445 5.92521 3.87687 5.95206 3.90522 5.9709C3.93356 5.98973 3.96662 5.99976 4.0004 5.99976C4.03418 5.99976 4.06723 5.98973 4.09558 5.9709C4.12392 5.95206 4.14634 5.92521 4.16013 5.8936L4.16086 5.89286Z"
        fill="#ED1C25" />
</svg>