<svg width="18" height="18" viewBox="0 0 18 18" fill="none" xmlns="http://www.w3.org/2000/svg">
    <path
        d="M9 1.5C13.1423 1.5 16.5 4.85775 16.5 9C16.5 13.1423 13.1423 16.5 9 16.5C4.85775 16.5 1.5 13.1423 1.5 9C1.5 4.85775 4.85775 1.5 9 1.5Z"
        fill="#39C5AB" />
    <path
        d="M9 2.25C12.728 2.25 15.75 5.27196 15.75 9C15.75 12.728 12.728 15.75 9 15.75C5.27196 15.75 2.25 12.728 2.25 9C2.25 5.27196 5.27196 2.25 9 2.25Z"
        stroke="#1CB6ED" stroke-opacity="0.4" stroke-width="1.5" style="mix-blend-mode:multiply" />
    <path
        d="M9 3.25C12.1757 3.25 14.75 5.82427 14.75 9C14.75 12.1757 12.1757 14.75 9 14.75C5.82427 14.75 3.25 12.1757 3.25 9C3.25 5.82427 5.82427 3.25 9 3.25Z"
        stroke="#24A69E" stroke-width="0.5" />
    <path
        d="M7.4515 12.5075C7.3255 12.5075 7.217 12.4655 7.126 12.3815C7.042 12.2905 7 12.182 7 12.056V5.4515C7 5.3255 7.042 5.2205 7.126 5.1365C7.217 5.0455 7.3255 5 7.4515 5H9.31C9.709 5 10.0695 5.0945 10.3915 5.2835C10.7135 5.4725 10.969 5.7245 11.158 6.0395C11.354 6.3545 11.452 6.708 11.452 7.1C11.452 7.359 11.396 7.6005 11.284 7.8245C11.179 8.0485 11.018 8.2515 10.801 8.4335C11.151 8.5805 11.424 8.808 11.62 9.116C11.823 9.424 11.9245 9.7915 11.9245 10.2185C11.9245 10.6385 11.8195 11.0235 11.6095 11.3735C11.4065 11.7165 11.13 11.993 10.78 12.203C10.437 12.406 10.052 12.5075 9.625 12.5075H7.4515ZM8.26 11.3105H9.5725C9.8875 11.3105 10.1465 11.209 10.3495 11.006C10.5525 10.803 10.654 10.5405 10.654 10.2185C10.654 9.9105 10.549 9.6585 10.339 9.4625C10.136 9.2665 9.8805 9.1685 9.5725 9.1685H8.26V11.3105ZM8.26 8.0345H9.2155C9.3975 8.0345 9.562 7.9925 9.709 7.9085C9.856 7.8245 9.9715 7.7125 10.0555 7.5725C10.1465 7.4325 10.192 7.282 10.192 7.121C10.192 6.862 10.094 6.6415 9.898 6.4595C9.709 6.2775 9.4815 6.1865 9.2155 6.1865H8.26V8.0345Z"
        fill="white" />
</svg>