<svg xmlns="http://www.w3.org/2000/svg" width="15" height="15" viewBox="0 0 15 15" fill="none">
<g clip-path="url(#clip0_3812_26484)">
<path fill-rule="evenodd" clip-rule="evenodd" d="M13.4687 3.19423C13.6445 3.37004 13.7432 3.60845 13.7432 3.85705C13.7432 4.10564 13.6445 4.34405 13.4687 4.51986L6.44183 11.5467C6.34897 11.6396 6.23872 11.7133 6.11738 11.7636C5.99604 11.8138 5.86599 11.8397 5.73464 11.8397C5.6033 11.8397 5.47325 11.8138 5.35191 11.7636C5.23057 11.7133 5.12032 11.6396 5.02746 11.5467L1.53621 8.05611C1.44667 7.96963 1.37525 7.86618 1.32611 7.7518C1.27698 7.63742 1.25112 7.5144 1.25004 7.38992C1.24895 7.26544 1.27267 7.14199 1.31981 7.02678C1.36695 6.91156 1.43656 6.80689 1.52459 6.71886C1.61261 6.63084 1.71729 6.56123 1.8325 6.51409C1.94772 6.46695 2.07117 6.44323 2.19565 6.44431C2.32013 6.44539 2.44315 6.47126 2.55752 6.52039C2.6719 6.56952 2.77535 6.64094 2.86183 6.73048L5.73433 9.60298L12.1425 3.19423C12.2295 3.10711 12.3329 3.03801 12.4467 2.99085C12.5605 2.9437 12.6824 2.91943 12.8056 2.91943C12.9287 2.91943 13.0507 2.9437 13.1645 2.99085C13.2783 3.03801 13.3816 3.10711 13.4687 3.19423Z" fill="#ED1C25"/>
</g>
<defs>
<clipPath id="clip0_3812_26484">
<rect width="15" height="15" fill="white"/>
</clipPath>
</defs>
</svg>