<svg width="28" height="28" viewBox="0 0 28 28" fill="none" xmlns="http://www.w3.org/2000/svg">
    <g clip-path="url(#clip0_1249_597)">
        <path fill-rule="evenodd" clip-rule="evenodd"
            d="M10.5 2.33374C11.1622 2.33296 11.8169 2.47346 12.4205 2.74587C13.024 3.01827 13.5625 3.41631 14 3.91341C14.4375 3.41631 14.976 3.01827 15.5795 2.74587C16.1831 2.47346 16.8378 2.33296 17.5 2.33374H18.0833C18.5475 2.33374 18.9926 2.51812 19.3208 2.84631C19.649 3.1745 19.8333 3.61961 19.8333 4.08374V4.66708C19.8333 5.51758 19.6058 6.31441 19.2092 7.00041H22.1667C22.7855 7.00041 23.379 7.24624 23.8166 7.68383C24.2542 8.12141 24.5 8.7149 24.5 9.33374V12.8337C24.5 13.2433 24.3922 13.6457 24.1874 14.0004C23.9826 14.3551 23.688 14.6496 23.3333 14.8544V21.0004C23.3333 21.9287 22.9646 22.8189 22.3082 23.4753C21.6518 24.1317 20.7616 24.5004 19.8333 24.5004H8.16667C7.23841 24.5004 6.34817 24.1317 5.69179 23.4753C5.03542 22.8189 4.66667 21.9287 4.66667 21.0004V14.8544C4.31196 14.6496 4.01741 14.3551 3.81262 14.0004C3.60783 13.6457 3.50001 13.2433 3.5 12.8337V9.33374C3.5 8.7149 3.74583 8.12141 4.18342 7.68383C4.621 7.24624 5.21449 7.00041 5.83333 7.00041H8.79083C8.38069 6.29127 8.16536 5.48628 8.16667 4.66708V4.08374C8.16667 3.61961 8.35104 3.1745 8.67923 2.84631C9.00742 2.51812 9.45254 2.33374 9.91667 2.33374H10.5ZM21 15.1671H15.1667V22.1671H19.8333L19.9698 22.1589C20.2303 22.1282 20.4727 22.0106 20.6582 21.8252C20.8436 21.6398 20.9611 21.3973 20.9918 21.1369L21 21.0004V15.1671ZM12.8333 15.1671H7V21.0004C7.00004 21.2862 7.10495 21.562 7.29483 21.7755C7.48472 21.989 7.74637 22.1255 8.03017 22.1589L8.16667 22.1671H12.8333V15.1671ZM22.1667 9.33374H15.1667V12.8337H22.1667V9.33374ZM12.8333 9.33374H5.83333V12.8337H12.8333V9.33374ZM10.5 4.66708C10.5 5.28591 10.7458 5.87941 11.1834 6.31699C11.621 6.75458 12.2145 7.00041 12.8333 7.00041C12.8333 6.38157 12.5875 5.78808 12.1499 5.35049C11.7123 4.91291 11.1188 4.66708 10.5 4.66708ZM17.5 4.66708C16.8812 4.66708 16.2877 4.91291 15.8501 5.35049C15.4125 5.78808 15.1667 6.38157 15.1667 7.00041C15.7855 7.00041 16.379 6.75458 16.8166 6.31699C17.2542 5.87941 17.5 5.28591 17.5 4.66708Z"
            fill="currentColor" />
    </g>
    <defs>
        <clipPath id="clip0_1249_597">
            <rect width="28" height="28" fill="currentColor" />
        </clipPath>
    </defs>
</svg>