<svg width="25" height="24" viewBox="0 0 25 24" fill="none" xmlns="http://www.w3.org/2000/svg">
    <path fill-rule="evenodd" clip-rule="evenodd"
        d="M16.5 3C16.7652 3 17.0196 3.10536 17.2071 3.29289C17.3946 3.48043 17.5 3.73478 17.5 4V5H19.5C20.0304 5 20.5391 5.21071 20.9142 5.58579C21.2893 5.96086 21.5 6.46957 21.5 7V19C21.5 19.5304 21.2893 20.0391 20.9142 20.4142C20.5391 20.7893 20.0304 21 19.5 21H5.5C4.96957 21 4.46086 20.7893 4.08579 20.4142C3.71071 20.0391 3.5 19.5304 3.5 19V7C3.5 6.46957 3.71071 5.96086 4.08579 5.58579C4.46086 5.21071 4.96957 5 5.5 5H7.5V4C7.5 3.73478 7.60536 3.48043 7.79289 3.29289C7.98043 3.10536 8.23478 3 8.5 3C8.76522 3 9.01957 3.10536 9.20711 3.29289C9.39464 3.48043 9.5 3.73478 9.5 4V5H15.5V4C15.5 3.73478 15.6054 3.48043 15.7929 3.29289C15.9804 3.10536 16.2348 3 16.5 3ZM8.5 7H5.5V9H19.5V7H16.5H8.5ZM5.5 11V19H19.5V11H5.5ZM7.5 13C7.5 12.7348 7.60536 12.4804 7.79289 12.2929C7.98043 12.1054 8.23478 12 8.5 12H8.51C8.77522 12 9.02957 12.1054 9.21711 12.2929C9.40464 12.4804 9.51 12.7348 9.51 13C9.51 13.2652 9.40464 13.5196 9.21711 13.7071C9.02957 13.8946 8.77522 14 8.51 14H8.5C8.23478 14 7.98043 13.8946 7.79289 13.7071C7.60536 13.5196 7.5 13.2652 7.5 13ZM8.5 15C8.23478 15 7.98043 15.1054 7.79289 15.2929C7.60536 15.4804 7.5 15.7348 7.5 16C7.5 16.2652 7.60536 16.5196 7.79289 16.7071C7.98043 16.8946 8.23478 17 8.5 17H8.51C8.77522 17 9.02957 16.8946 9.21711 16.7071C9.40464 16.5196 9.51 16.2652 9.51 16C9.51 15.7348 9.40464 15.4804 9.21711 15.2929C9.02957 15.1054 8.77522 15 8.51 15H8.5ZM11.5 13C11.5 12.7348 11.6054 12.4804 11.7929 12.2929C11.9804 12.1054 12.2348 12 12.5 12H12.51C12.7752 12 13.0296 12.1054 13.2171 12.2929C13.4046 12.4804 13.51 12.7348 13.51 13C13.51 13.2652 13.4046 13.5196 13.2171 13.7071C13.0296 13.8946 12.7752 14 12.51 14H12.5C12.2348 14 11.9804 13.8946 11.7929 13.7071C11.6054 13.5196 11.5 13.2652 11.5 13ZM12.5 15C12.2348 15 11.9804 15.1054 11.7929 15.2929C11.6054 15.4804 11.5 15.7348 11.5 16C11.5 16.2652 11.6054 16.5196 11.7929 16.7071C11.9804 16.8946 12.2348 17 12.5 17H12.51C12.7752 17 13.0296 16.8946 13.2171 16.7071C13.4046 16.5196 13.51 16.2652 13.51 16C13.51 15.7348 13.4046 15.4804 13.2171 15.2929C13.0296 15.1054 12.7752 15 12.51 15H12.5ZM15.5 13C15.5 12.7348 15.6054 12.4804 15.7929 12.2929C15.9804 12.1054 16.2348 12 16.5 12H16.51C16.7752 12 17.0296 12.1054 17.2171 12.2929C17.4046 12.4804 17.51 12.7348 17.51 13C17.51 13.2652 17.4046 13.5196 17.2171 13.7071C17.0296 13.8946 16.7752 14 16.51 14H16.5C16.2348 14 15.9804 13.8946 15.7929 13.7071C15.6054 13.5196 15.5 13.2652 15.5 13ZM16.5 15C16.2348 15 15.9804 15.1054 15.7929 15.2929C15.6054 15.4804 15.5 15.7348 15.5 16C15.5 16.2652 15.6054 16.5196 15.7929 16.7071C15.9804 16.8946 16.2348 17 16.5 17H16.51C16.7752 17 17.0296 16.8946 17.2171 16.7071C17.4046 16.5196 17.51 16.2652 17.51 16C17.51 15.7348 17.4046 15.4804 17.2171 15.2929C17.0296 15.1054 16.7752 15 16.51 15H16.5Z"
        fill="currentColor" />
</svg>