<svg width="25" height="24" viewBox="0 0 25 24" fill="none" xmlns="http://www.w3.org/2000/svg">
    <g clip-path="url(#clip0_594_11802)">
        <path fill-rule="evenodd" clip-rule="evenodd"
            d="M13.7283 2.68677C13.3773 2.41366 12.9452 2.26538 12.5003 2.26538C12.0555 2.26538 11.6234 2.41366 11.2723 2.68677L2.88835 9.20677C2.13635 9.79377 2.55035 10.9988 3.50335 10.9988H4.50035V18.9988C4.50035 19.5292 4.71106 20.0379 5.08613 20.413C5.46121 20.7881 5.96992 20.9988 6.50035 20.9988H11.5003V13.9988C11.5003 13.7336 11.6057 13.4792 11.7932 13.2917C11.9808 13.1041 12.2351 12.9988 12.5003 12.9988C12.7656 12.9988 13.0199 13.1041 13.2075 13.2917C13.395 13.4792 13.5003 13.7336 13.5003 13.9988V20.9988H18.5003C19.0308 20.9988 19.5395 20.7881 19.9146 20.413C20.2896 20.0379 20.5003 19.5292 20.5003 18.9988V10.9988H21.4973C22.4493 10.9988 22.8653 9.79377 22.1123 9.20777L13.7283 2.68677Z"
            fill="currentColor" />
    </g>

</svg>