<svg width="32" height="16" viewBox="0 0 32 16" fill="none" xmlns="http://www.w3.org/2000/svg">
    <path d="M0 0H32V11.4286C32 13.9533 29.9533 16 27.4286 16H0V0Z" fill="#ED1C25" />
    <g clip-path="url(#clip0_228_129010)">
        <path d="M17 0H1V16H17V0Z" fill="#ED1C24" />
        <path d="M5.14771 3.55408L8.0917 5.11208L11.0877 3.55408V8.67408H13.4457V12.4461H5.14771V3.55408Z"
            fill="white" />
        <path d="M7.50419 7.66174H6.49219V8.67374H7.50419V7.66174Z" fill="black" />
        <path d="M9.86527 7.66174H8.85327V8.67374H9.86527V7.66174Z" fill="black" />
        <path d="M13.4434 8.67346H12.4314V9.68546H13.4434V8.67346Z" fill="black" />
        <path d="M13.4436 11.0122H11.5916V11.4682H13.4436V11.0122Z" fill="black" />
    </g>
    <path
        d="M18.215 7.47V2.96H19.3425V7.25L18.6495 6.48C19.0858 6.48 19.4708 6.4415 19.8045 6.3645C20.1382 6.2875 20.4315 6.1665 20.6845 6.0015C20.9412 5.83283 21.1667 5.61467 21.361 5.347C21.5553 5.07567 21.7295 4.7475 21.8835 4.3625L22.78 4.7475C22.549 5.37083 22.2483 5.88417 21.878 6.2875C21.5077 6.69083 21.0548 6.98967 20.5195 7.184C19.9878 7.37467 19.3627 7.47 18.644 7.47H18.215ZM23.495 6.59C24.2283 6.56433 24.837 6.46717 25.321 6.2985C25.8087 6.12617 26.1937 5.86583 26.476 5.5175C26.7583 5.16917 26.96 4.71633 27.081 4.159L28.0985 4.324C27.9518 5.04633 27.6988 5.64217 27.3395 6.1115C26.9802 6.57717 26.498 6.92917 25.893 7.1675C25.288 7.40583 24.5437 7.54333 23.66 7.58L23.495 6.59ZM25.167 5.6715C24.9397 5.5945 24.7215 5.52667 24.5125 5.468C24.3072 5.40567 24.1018 5.34883 23.8965 5.2975C23.6912 5.24617 23.4767 5.19667 23.253 5.149L23.5555 4.2635C23.7792 4.31117 23.9918 4.36067 24.1935 4.412C24.3988 4.46333 24.606 4.52017 24.815 4.5825C25.024 4.64117 25.2422 4.709 25.4695 4.786L25.167 5.6715ZM25.5795 4.357C25.3485 4.28 25.1285 4.21033 24.9195 4.148C24.7105 4.08567 24.5015 4.02883 24.2925 3.9775C24.0835 3.9225 23.8653 3.87117 23.638 3.8235L23.9405 2.938C24.1678 2.98567 24.3842 3.037 24.5895 3.092C24.7985 3.14333 25.0075 3.20017 25.2165 3.2625C25.4292 3.32483 25.651 3.3945 25.882 3.4715L25.5795 4.357ZM26.9655 3.983C26.8665 3.79233 26.7657 3.61817 26.663 3.4605C26.564 3.29917 26.4503 3.136 26.322 2.971L26.8885 2.641C27.0168 2.795 27.1323 2.95633 27.235 3.125C27.3413 3.29 27.444 3.46967 27.543 3.664L26.9655 3.983ZM27.8895 3.884C27.8052 3.68967 27.7172 3.51 27.6255 3.345C27.5338 3.18 27.4293 3.01133 27.312 2.839L27.8895 2.5475C28.0068 2.7125 28.1113 2.88117 28.203 3.0535C28.2947 3.22217 28.3845 3.40917 28.4725 3.6145L27.8895 3.884ZM17.885 12.2325C18.193 12.0712 18.501 11.8842 18.809 11.6715C19.117 11.4588 19.4177 11.226 19.711 10.973C20.008 10.72 20.2885 10.4523 20.5525 10.17L21.295 10.72C20.987 11.0573 20.6772 11.3672 20.3655 11.6495C20.0575 11.9282 19.7422 12.183 19.4195 12.414C19.0968 12.645 18.7595 12.8595 18.4075 13.0575L17.885 12.2325ZM20.58 13.6075C20.492 13.6075 20.4077 13.6057 20.327 13.602C20.2463 13.5983 20.1547 13.5928 20.052 13.5855C19.953 13.5782 19.8265 13.5672 19.6725 13.5525L19.7275 12.645C19.8595 12.656 19.9713 12.667 20.063 12.678C20.1583 12.6853 20.239 12.6908 20.305 12.6945C20.371 12.6982 20.426 12.7 20.47 12.7C20.5727 12.7 20.6497 12.6963 20.701 12.689C20.7523 12.678 20.7853 12.6597 20.8 12.634C20.8183 12.6047 20.8275 12.5625 20.8275 12.5075V8.7125H21.845V12.5075C21.845 12.7568 21.8322 12.9548 21.8065 13.1015C21.7808 13.2482 21.7258 13.3582 21.6415 13.4315C21.5572 13.5048 21.4307 13.5525 21.262 13.5745C21.0933 13.5965 20.866 13.6075 20.58 13.6075ZM17.8575 10.4725V9.565H22.8075V10.4725H17.8575ZM24.0175 12.6175C24.5125 12.6065 24.9268 12.5662 25.2605 12.4965C25.5942 12.4268 25.8582 12.3187 26.0525 12.172C26.2505 12.0253 26.3917 11.831 26.476 11.589C26.5603 11.347 26.6025 11.0482 26.6025 10.6925V8.96H27.73V10.665C27.73 11.1783 27.6622 11.6183 27.5265 11.985C27.3945 12.3517 27.1855 12.6523 26.8995 12.887C26.6135 13.118 26.2432 13.2885 25.7885 13.3985C25.3375 13.5122 24.793 13.5727 24.155 13.58L24.0175 12.6175ZM23.77 11.545V8.96H24.8975V11.545H23.77Z"
        fill="white" />
    <defs>
        <clipPath id="clip0_228_129010">
            <rect width="16" height="16" fill="white" transform="translate(1)" />
        </clipPath>
    </defs>
</svg>