<svg width="29" height="28" viewBox="0 0 29 28" fill="none" xmlns="http://www.w3.org/2000/svg">
    <path
        d="M23.8344 21.0001C24.1318 21.0004 24.4178 21.1143 24.634 21.3184C24.8503 21.5225 24.9804 21.8015 24.9978 22.0984C25.0152 22.3952 24.9186 22.6875 24.7278 22.9156C24.5369 23.1436 24.2662 23.2901 23.9709 23.3252L23.8344 23.3334H5.16777C4.87041 23.3331 4.58439 23.2192 4.36817 23.0151C4.15194 22.811 4.02182 22.532 4.0044 22.2351C3.98697 21.9383 4.08355 21.646 4.27441 21.4179C4.46526 21.1899 4.73599 21.0434 5.03127 21.0082L5.16777 21.0001H23.8344ZM23.8344 12.8334C24.1439 12.8334 24.4406 12.9563 24.6594 13.1751C24.8782 13.3939 25.0011 13.6907 25.0011 14.0001C25.0011 14.3095 24.8782 14.6062 24.6594 14.825C24.4406 15.0438 24.1439 15.1667 23.8344 15.1667H5.16777C4.85835 15.1667 4.5616 15.0438 4.34281 14.825C4.12401 14.6062 4.0011 14.3095 4.0011 14.0001C4.0011 13.6907 4.12401 13.3939 4.34281 13.1751C4.5616 12.9563 4.85835 12.8334 5.16777 12.8334H23.8344ZM23.8344 4.66675C24.1439 4.66675 24.4406 4.78966 24.6594 5.00846C24.8782 5.22725 25.0011 5.524 25.0011 5.83341C25.0011 6.14283 24.8782 6.43958 24.6594 6.65837C24.4406 6.87716 24.1439 7.00008 23.8344 7.00008H5.16777C4.85835 7.00008 4.5616 6.87716 4.34281 6.65837C4.12401 6.43958 4.0011 6.14283 4.0011 5.83341C4.0011 5.524 4.12401 5.22725 4.34281 5.00846C4.5616 4.78966 4.85835 4.66675 5.16777 4.66675H23.8344Z"
        fill="currentColor" />
</svg>