<svg width="18" height="18" viewBox="0 0 18 18" fill="none" xmlns="http://www.w3.org/2000/svg">
    <rect width="18" height="18" rx="2.66667" fill="#0860B8" />
    <g filter="url(#filter0_d_397_361946)">
        <path
            d="M5.37784 6.18182L6.4858 9.01136L5.55682 9.77557L3.95739 6.18182H5.37784ZM5.8608 8.97443L6.9517 6.18182H8.37216L6.76136 9.77557L5.8608 8.97443ZM6.83523 8.93466V12H5.44886V8.93466H6.83523ZM7.94318 8.96591V9.73295H4.22159V8.96591H7.94318ZM7.94318 10.0909V10.858H4.22159V10.0909H7.94318ZM11.3196 12.142C10.812 12.142 10.3745 12.0218 10.0071 11.7812C9.63968 11.5388 9.35653 11.1913 9.15767 10.7386C8.95881 10.2841 8.86032 9.73769 8.86222 9.09943C8.86411 8.46117 8.96354 7.91951 9.16051 7.47443C9.35938 7.02746 9.64157 6.6875 10.0071 6.45455C10.3745 6.2197 10.812 6.10227 11.3196 6.10227C11.8272 6.10227 12.2647 6.2197 12.6321 6.45455C13.0014 6.6875 13.2855 7.02746 13.4844 7.47443C13.6832 7.9214 13.7817 8.46307 13.7798 9.09943C13.7798 9.73958 13.6804 10.2869 13.4815 10.7415C13.2827 11.196 12.9995 11.5436 12.6321 11.7841C12.2666 12.0227 11.8291 12.142 11.3196 12.142ZM11.3196 10.9915C11.6226 10.9915 11.8679 10.8371 12.0554 10.5284C12.2429 10.2178 12.3357 9.74148 12.3338 9.09943C12.3338 8.67898 12.2912 8.33239 12.206 8.05966C12.1207 7.78504 12.0024 7.58049 11.8509 7.44602C11.6993 7.31155 11.5223 7.24432 11.3196 7.24432C11.0185 7.24432 10.7751 7.39678 10.5895 7.7017C10.4039 8.00473 10.3101 8.47064 10.3082 9.09943C10.3063 9.52557 10.3471 9.87879 10.4304 10.1591C10.5156 10.4394 10.6349 10.6487 10.7884 10.7869C10.9418 10.9233 11.1188 10.9915 11.3196 10.9915Z"
            fill="white" />
    </g>
    <g filter="url(#filter1_d_397_361946)">
        <path
            d="M14.7947 15.7733C14.894 15.5478 15.0633 15.3602 15.2775 15.2385C15.3095 15.2205 15.3095 15.1745 15.2775 15.1565C15.0632 15.0347 14.8938 14.8471 14.7945 14.6215C14.7907 14.613 14.7845 14.6058 14.7767 14.6007C14.7689 14.5957 14.7598 14.593 14.7505 14.593C14.7412 14.593 14.7321 14.5957 14.7243 14.6007C14.7165 14.6058 14.7103 14.613 14.7065 14.6215C14.6072 14.847 14.4378 15.0346 14.2235 15.1563C14.2163 15.1604 14.2103 15.1664 14.2061 15.1736C14.2019 15.1808 14.1997 15.189 14.1997 15.1973C14.1997 15.2056 14.2019 15.2138 14.2061 15.221C14.2103 15.2282 14.2163 15.2342 14.2235 15.2383C14.4379 15.3601 14.6073 15.5478 14.7065 15.7735C14.7103 15.782 14.7165 15.7892 14.7243 15.7942C14.7321 15.7993 14.7412 15.802 14.7505 15.802C14.7598 15.802 14.7689 15.7993 14.7767 15.7942C14.7845 15.7892 14.7907 15.782 14.7945 15.7735L14.7947 15.7733Z"
            fill="white" />
        <path
            d="M13.6645 14.3574C13.8086 14.0216 14.0545 13.7424 14.3656 13.5612C14.412 13.5344 14.412 13.4659 14.3656 13.4391C14.0543 13.2578 13.8084 12.9785 13.6642 12.6426C13.6587 12.63 13.6497 12.6192 13.6384 12.6117C13.627 12.6042 13.6138 12.6001 13.6003 12.6001C13.5868 12.6001 13.5735 12.6042 13.5622 12.6117C13.5509 12.6192 13.5419 12.63 13.5364 12.6426C13.3921 12.9784 13.1462 13.2576 12.835 13.4388C12.8245 13.445 12.8158 13.4538 12.8097 13.4646C12.8036 13.4753 12.8004 13.4875 12.8004 13.4998C12.8004 13.5122 12.8036 13.5244 12.8097 13.5351C12.8158 13.5459 12.8245 13.5547 12.835 13.5609C13.1463 13.7422 13.3922 14.0217 13.5364 14.3577C13.5419 14.3703 13.5509 14.3811 13.5622 14.3886C13.5735 14.3961 13.5868 14.4001 13.6003 14.4001C13.6138 14.4001 13.627 14.3961 13.6384 14.3886C13.6497 14.3811 13.6587 14.3703 13.6642 14.3577L13.6645 14.3574Z"
            fill="white" />
    </g>
    <g filter="url(#filter2_d_397_361946)">
        <path
            d="M3.20528 2.22672C3.106 2.45224 2.9367 2.63977 2.72248 2.76152C2.69048 2.77952 2.69048 2.82552 2.72248 2.84352C2.93681 2.96529 3.10618 3.1529 3.20548 3.37852C3.20928 3.38701 3.21545 3.39423 3.22326 3.39929C3.23107 3.40435 3.24017 3.40704 3.24948 3.40704C3.25878 3.40704 3.26789 3.40435 3.2757 3.39929C3.2835 3.39423 3.28968 3.38701 3.29348 3.37852C3.39281 3.15297 3.56218 2.96543 3.77648 2.84372C3.78371 2.83959 3.78972 2.83363 3.79391 2.82643C3.79809 2.81923 3.80029 2.81105 3.80029 2.80272C3.80029 2.79439 3.79809 2.78621 3.79391 2.77901C3.78972 2.77181 3.78371 2.76585 3.77648 2.76172C3.56211 2.6399 3.39274 2.45222 3.29348 2.22652C3.28968 2.21803 3.2835 2.21081 3.2757 2.20575C3.26789 2.20069 3.25878 2.198 3.24948 2.198C3.24017 2.198 3.23107 2.20069 3.22326 2.20575C3.21545 2.21081 3.20928 2.21803 3.20548 2.22652L3.20528 2.22672Z"
            fill="white" />
        <path
            d="M4.33553 3.64261C4.19137 3.97836 3.94552 4.25756 3.63444 4.43881C3.58797 4.46561 3.58797 4.5341 3.63444 4.56089C3.94568 4.74218 4.19164 5.02149 4.33582 5.35739C4.34134 5.37004 4.35031 5.38077 4.36165 5.38831C4.37299 5.39584 4.38621 5.39985 4.39972 5.39985C4.41323 5.39985 4.42645 5.39584 4.43779 5.38831C4.44913 5.38077 4.4581 5.37004 4.46361 5.35739C4.60785 5.0216 4.85381 4.7424 5.165 4.56119C5.17551 4.55505 5.18424 4.54617 5.19031 4.53545C5.19639 4.52473 5.19958 4.51255 5.19958 4.50015C5.19958 4.48775 5.19639 4.47558 5.19031 4.46486C5.18424 4.45414 5.17551 4.44525 5.165 4.43911C4.85371 4.25775 4.60775 3.97833 4.46361 3.64232C4.4581 3.62967 4.44913 3.61893 4.43779 3.6114C4.42645 3.60386 4.41323 3.59985 4.39972 3.59985C4.38621 3.59985 4.37299 3.60386 4.36165 3.6114C4.35031 3.61893 4.34134 3.62967 4.33582 3.64232L4.33553 3.64261Z"
            fill="white" />
    </g>
    <defs>
        <filter id="filter0_d_397_361946" x="3.06851" y="5.21341" width="11.6031" height="7.81757"
            filterUnits="userSpaceOnUse" color-interpolation-filters="sRGB">
            <feFlood flood-opacity="0" result="BackgroundImageFix" />
            <feColorMatrix in="SourceAlpha" type="matrix" values="0 0 0 0 0 0 0 0 0 0 0 0 0 0 0 0 0 0 127 0"
                result="hardAlpha" />
            <feOffset />
            <feGaussianBlur stdDeviation="0.444444" />
            <feComposite in2="hardAlpha" operator="out" />
            <feColorMatrix type="matrix" values="0 0 0 0 0 0 0 0 0 0 0 0 0 0 0 0 0 0 0.5 0" />
            <feBlend mode="normal" in2="BackgroundImageFix" result="effect1_dropShadow_397_361946" />
            <feBlend mode="normal" in="SourceGraphic" in2="effect1_dropShadow_397_361946" result="shape" />
        </filter>
        <filter id="filter1_d_397_361946" x="11.2" y="11.2" width="5.6" height="5.6" filterUnits="userSpaceOnUse"
            color-interpolation-filters="sRGB">
            <feFlood flood-opacity="0" result="BackgroundImageFix" />
            <feColorMatrix in="SourceAlpha" type="matrix" values="0 0 0 0 0 0 0 0 0 0 0 0 0 0 0 0 0 0 127 0"
                result="hardAlpha" />
            <feOffset />
            <feGaussianBlur stdDeviation="0.4" />
            <feComposite in2="hardAlpha" operator="out" />
            <feColorMatrix type="matrix" values="0 0 0 0 0 0 0 0 0 0 0 0 0 0 0 0 0 0 0.5 0" />
            <feBlend mode="normal" in2="BackgroundImageFix" result="effect1_dropShadow_397_361946" />
            <feBlend mode="normal" in="SourceGraphic" in2="effect1_dropShadow_397_361946" result="shape" />
        </filter>
        <filter id="filter2_d_397_361946" x="1.2" y="1.2" width="5.6" height="5.6" filterUnits="userSpaceOnUse"
            color-interpolation-filters="sRGB">
            <feFlood flood-opacity="0" result="BackgroundImageFix" />
            <feColorMatrix in="SourceAlpha" type="matrix" values="0 0 0 0 0 0 0 0 0 0 0 0 0 0 0 0 0 0 127 0"
                result="hardAlpha" />
            <feOffset />
            <feGaussianBlur stdDeviation="0.4" />
            <feComposite in2="hardAlpha" operator="out" />
            <feColorMatrix type="matrix" values="0 0 0 0 0 0 0 0 0 0 0 0 0 0 0 0 0 0 0.5 0" />
            <feBlend mode="normal" in2="BackgroundImageFix" result="effect1_dropShadow_397_361946" />
            <feBlend mode="normal" in="SourceGraphic" in2="effect1_dropShadow_397_361946" result="shape" />
        </filter>
    </defs>
</svg>