<svg width="28" height="28" viewBox="0 0 28 28" fill="none" xmlns="http://www.w3.org/2000/svg">
    <g clip-path="url(#clip0_1249_602)">
        <path fill-rule="evenodd" clip-rule="evenodd"
            d="M12.2497 4.66745C10.2384 4.66745 8.3096 5.46641 6.88745 6.88856C5.4653 8.31071 4.66634 10.2396 4.66634 12.2508C4.66634 14.262 5.4653 16.1909 6.88745 17.613C8.3096 19.0352 10.2384 19.8341 12.2497 19.8341C14.2609 19.8341 16.1897 19.0352 17.6119 17.613C19.0341 16.1909 19.833 14.262 19.833 12.2508C19.833 10.2396 19.0341 8.31071 17.6119 6.88856C16.1897 5.46641 14.2609 4.66745 12.2497 4.66745ZM2.33301 12.2508C2.33314 10.6695 2.71143 9.11112 3.43632 7.70575C4.1612 6.30037 5.21166 5.08873 6.50005 4.17189C7.78845 3.25506 9.27741 2.65963 10.8427 2.43528C12.408 2.21093 14.0043 2.36416 15.4984 2.88219C16.9924 3.40023 18.3409 4.26804 19.4314 5.41323C20.5218 6.55842 21.3226 7.94777 21.7669 9.46538C22.2112 10.983 22.2861 12.5848 21.9854 14.1373C21.6847 15.6898 21.0171 17.1478 20.0383 18.3898L24.299 22.6504C24.5115 22.8705 24.6291 23.1652 24.6265 23.4711C24.6238 23.777 24.5011 24.0696 24.2848 24.2859C24.0685 24.5022 23.7759 24.6249 23.47 24.6276C23.1641 24.6302 22.8694 24.5126 22.6493 24.3001L18.3887 20.0394C16.9264 21.1921 15.1691 21.9098 13.318 22.1104C11.4669 22.311 9.5967 21.9864 7.92145 21.1737C6.2462 20.361 4.83359 19.0931 3.84528 17.5151C2.85697 15.9371 2.33288 14.1127 2.33301 12.2508ZM11.083 8.16745C11.083 7.85803 11.2059 7.56129 11.4247 7.34249C11.6435 7.1237 11.9403 7.00078 12.2497 7.00078C13.6421 7.00078 14.9774 7.55391 15.962 8.53847C16.9466 9.52304 17.4997 10.8584 17.4997 12.2508C17.4997 12.5602 17.3768 12.8569 17.158 13.0757C16.9392 13.2945 16.6424 13.4174 16.333 13.4174C16.0236 13.4174 15.7268 13.2945 15.508 13.0757C15.2893 12.8569 15.1663 12.5602 15.1663 12.2508C15.1663 11.4772 14.859 10.7354 14.3121 10.1884C13.7651 9.64141 13.0232 9.33412 12.2497 9.33412C11.9403 9.33412 11.6435 9.2112 11.4247 8.99241C11.2059 8.77362 11.083 8.47687 11.083 8.16745Z"
            fill="currentColor" />
    </g>
    <defs>
        <clipPath id="clip0_1249_602">
            <rect width="28" height="28" fill="currentColor" />
        </clipPath>
    </defs>
</svg>