<svg width="28" height="28" viewBox="0 0 28 28" fill="none" xmlns="http://www.w3.org/2000/svg">
    <path
        d="M10.497 23.3334C10.8065 23.3334 11.1032 23.4563 11.322 23.6751C11.5408 23.8939 11.6637 24.1906 11.6637 24.5001C11.6637 24.8095 11.5408 25.1062 11.322 25.325C11.1032 25.5438 10.8065 25.6667 10.497 25.6667C10.1876 25.6667 9.89087 25.5438 9.67208 25.325C9.45329 25.1062 9.33037 24.8095 9.33037 24.5001C9.33037 24.1906 9.45329 23.8939 9.67208 23.6751C9.89087 23.4563 10.1876 23.3334 10.497 23.3334ZM18.6637 23.3334C18.9731 23.3334 19.2699 23.4563 19.4887 23.6751C19.7075 23.8939 19.8304 24.1906 19.8304 24.5001C19.8304 24.8095 19.7075 25.1062 19.4887 25.325C19.2699 25.5438 18.9731 25.6667 18.6637 25.6667C18.3543 25.6667 18.0575 25.5438 17.8387 25.325C17.62 25.1062 17.497 24.8095 17.497 24.5001C17.497 24.1906 17.62 23.8939 17.8387 23.6751C18.0575 23.4563 18.3543 23.3334 18.6637 23.3334ZM4.07454 3.06956L4.19704 3.15122L6.18971 4.64456C6.52881 4.899 6.79219 5.24103 6.95154 5.63389L7.02154 5.83339H22.0085C22.3248 5.83331 22.6378 5.89754 22.9285 6.02217C23.2192 6.1468 23.4816 6.32923 23.6996 6.55837C23.9176 6.78752 24.0868 7.0586 24.1968 7.35514C24.3068 7.65168 24.3554 7.96749 24.3395 8.28339L24.3244 8.45606L23.7912 12.7202C23.6312 14.0035 23.0493 15.1972 22.137 16.1137C21.2247 17.0302 20.0337 17.6176 18.7512 17.7836L18.4875 17.8104L9.95571 18.5221L10.259 19.8334H20.4137C20.7111 19.8337 20.9971 19.9476 21.2133 20.1517C21.4295 20.3558 21.5596 20.6348 21.5771 20.9317C21.5945 21.2285 21.4979 21.5208 21.3071 21.7489C21.1162 21.9769 20.8455 22.1234 20.5502 22.1586L20.4137 22.1667H10.259C9.76391 22.1668 9.28159 22.0094 8.88184 21.7172C8.48209 21.4251 8.18564 21.0133 8.03537 20.5416L7.98521 20.3584L4.78854 6.51006L2.79704 5.01672C2.56942 4.84612 2.41197 4.59823 2.35431 4.31968C2.29664 4.04113 2.34273 3.7511 2.48391 3.50415C2.62508 3.2572 2.85162 3.07033 3.12091 2.9787C3.39021 2.88706 3.6837 2.89697 3.94621 3.00656L4.07454 3.06956ZM22.0085 8.16672H7.56521L9.42604 16.2237L18.2927 15.4852C19.0929 15.4186 19.846 15.0789 20.4254 14.523C21.0049 13.9671 21.3756 13.2288 21.4754 12.4321L22.0085 8.16672Z"
        fill="currentColor" />
</svg>