<svg xmlns="http://www.w3.org/2000/svg" width="24" height="24" viewBox="0 0 24 24" fill="none">
<g opacity="0.5" clip-path="url(#clip0_1402_78820)">
<path fill-rule="evenodd" clip-rule="evenodd" d="M10.9192 2.86807C11.0293 2.67923 11.1869 2.52255 11.3764 2.41365C11.5659 2.30475 11.7807 2.24744 11.9992 2.24744C12.2178 2.24744 12.4326 2.30475 12.6221 2.41365C12.8116 2.52255 12.9692 2.67923 13.0792 2.86807L15.8742 7.66607L21.3022 8.84207C21.5158 8.88847 21.7134 8.99002 21.8754 9.1366C22.0374 9.28319 22.1582 9.46968 22.2257 9.67749C22.2932 9.88531 22.305 10.1072 22.26 10.321C22.215 10.5348 22.1148 10.7331 21.9692 10.8961L18.2692 15.0371L18.8292 20.5621C18.8513 20.7796 18.816 20.9992 18.7267 21.1988C18.6374 21.3984 18.4973 21.5711 18.3204 21.6996C18.1435 21.8282 17.9359 21.908 17.7185 21.9313C17.5011 21.9545 17.2813 21.9203 17.0812 21.8321L11.9992 19.5921L6.91725 21.8321C6.71717 21.9203 6.49744 21.9545 6.28001 21.9313C6.06257 21.908 5.85503 21.8282 5.67812 21.6996C5.50121 21.5711 5.36111 21.3984 5.27182 21.1988C5.18253 20.9992 5.14716 20.7796 5.16925 20.5621L5.72925 15.0371L2.02925 10.8971C1.88348 10.7341 1.78301 10.5357 1.73787 10.3218C1.69272 10.1078 1.70449 9.8858 1.772 9.67783C1.8395 9.46985 1.96038 9.28322 2.12256 9.13657C2.28474 8.98992 2.48256 8.88837 2.69625 8.84207L8.12425 7.66607L10.9192 2.86807ZM11.9992 4.98707L9.68625 8.95907C9.59879 9.10899 9.48107 9.23906 9.34058 9.34098C9.20009 9.44291 9.03991 9.51445 8.87025 9.55107L4.37825 10.5241L7.44025 13.9511C7.67425 14.2131 7.78725 14.5611 7.75225 14.9101L7.28925 19.4831L11.4952 17.6291C11.6541 17.5591 11.8257 17.523 11.9992 17.523C12.1728 17.523 12.3444 17.5591 12.5032 17.6291L16.7092 19.4831L16.2462 14.9101C16.2287 14.7374 16.2472 14.5629 16.3008 14.3978C16.3543 14.2327 16.4417 14.0806 16.5572 13.9511L19.6202 10.5241L15.1282 9.55107C14.9586 9.51445 14.7984 9.44291 14.6579 9.34098C14.5174 9.23906 14.3997 9.10899 14.3122 8.95907L11.9992 4.98707Z" fill="white"/>
</g>
<defs>
<clipPath id="clip0_1402_78820">
<rect width="24" height="24" fill="white"/>
</clipPath>
</defs>
</svg>