<svg width="18" height="18" viewBox="0 0 18 18" fill="none" xmlns="http://www.w3.org/2000/svg">
<g clip-path="url(#clip0_1645_3669)">
<path fill-rule="evenodd" clip-rule="evenodd" d="M8.23156 2.25165C8.27546 2.44559 8.24056 2.64902 8.13451 2.81723C8.02847 2.98543 7.85997 3.10464 7.66606 3.14865C7.51888 3.18209 7.37302 3.22112 7.22881 3.26565C7.1347 3.29471 7.03579 3.30494 6.93773 3.29577C6.83966 3.2866 6.74436 3.25821 6.65728 3.21221C6.57019 3.16621 6.49301 3.1035 6.43015 3.02768C6.36729 2.95185 6.31999 2.86439 6.29093 2.77028C6.26188 2.67617 6.25164 2.57726 6.26081 2.4792C6.26998 2.38113 6.29838 2.28583 6.34438 2.19874C6.39038 2.11166 6.45308 2.03448 6.52891 1.97162C6.60474 1.90876 6.6922 1.86146 6.78631 1.8324C6.96631 1.7769 7.14931 1.7274 7.33381 1.68615C7.42989 1.6643 7.52933 1.6616 7.62646 1.6782C7.72358 1.6948 7.81649 1.73037 7.89986 1.78289C7.98323 1.8354 8.05544 1.90383 8.11235 1.98427C8.16926 2.0647 8.20977 2.15556 8.23156 2.25165ZM9.76906 2.25165C9.81307 2.05774 9.93228 1.88924 10.1005 1.7832C10.2687 1.67715 10.4721 1.64225 10.6661 1.68615C14.0066 2.44365 16.5011 5.43015 16.5011 9.00015C16.5011 13.1424 13.1426 16.5002 9.00106 16.5002C5.43031 16.5002 2.44381 14.0064 1.68631 10.6659C1.64743 10.4739 1.68522 10.2743 1.79161 10.1098C1.898 9.94527 2.06453 9.82892 2.2556 9.78561C2.44666 9.7423 2.64709 9.77547 2.81401 9.87803C2.98093 9.98059 3.1011 10.1444 3.14881 10.3344C3.38747 11.3797 3.90188 12.342 4.63853 13.1211C5.37518 13.9002 6.30715 14.4676 7.33747 14.7644C8.36779 15.0612 9.45882 15.0765 10.497 14.8087C11.5353 14.5408 12.4828 13.9997 13.2409 13.2415C13.9991 12.4833 14.5402 11.5359 14.8081 10.4976C15.0759 9.45941 15.0606 8.36838 14.7638 7.33806C14.4671 6.30774 13.8996 5.37578 13.1205 4.63913C12.3414 3.90248 11.3791 3.38806 10.3338 3.1494C10.1399 3.10524 9.97143 2.98584 9.86551 2.81748C9.75961 2.64913 9.72491 2.44559 9.76906 2.25165ZM4.96081 3.54015C5.02788 3.61237 5.08006 3.6971 5.11437 3.7895C5.14868 3.8819 5.16443 3.98015 5.16074 4.07864C5.15705 4.17713 5.13398 4.27393 5.09285 4.3635C5.05173 4.45307 4.99335 4.53366 4.92106 4.60065C4.81006 4.70265 4.70356 4.8099 4.60081 4.92015C4.46456 5.06192 4.2781 5.14451 4.08156 5.15015C3.88502 5.15578 3.69412 5.08402 3.54997 4.95029C3.40583 4.81657 3.31996 4.63159 3.31086 4.43518C3.30176 4.23877 3.37015 4.04663 3.50131 3.90015C3.62881 3.76215 3.76231 3.62865 3.90031 3.5004C3.97253 3.43333 4.05726 3.38115 4.14965 3.34684C4.24205 3.31254 4.34031 3.29678 4.4388 3.30047C4.53729 3.30416 4.63409 3.32723 4.72366 3.36836C4.81323 3.40948 4.89381 3.46786 4.96081 3.54015ZM9.00031 4.50015C9.19922 4.50015 9.38999 4.57917 9.53064 4.71982C9.67129 4.86048 9.75031 5.05124 9.75031 5.25015V8.68965L11.7806 10.7199C11.9172 10.8614 11.9928 11.0508 11.9911 11.2475C11.9894 11.4441 11.9105 11.6322 11.7714 11.7713C11.6324 11.9103 11.4443 11.9892 11.2476 11.9909C11.051 11.9926 10.8615 11.917 10.7201 11.7804L8.47006 9.5304C8.3294 9.38978 8.25035 9.19905 8.25031 9.00015V5.25015C8.25031 5.05124 8.32933 4.86048 8.46998 4.71982C8.61063 4.57917 8.8014 4.50015 9.00031 4.50015ZM2.77006 6.29115C2.9601 6.34976 3.11909 6.48144 3.21206 6.65725C3.30502 6.83306 3.32436 7.03859 3.26581 7.22865C3.22128 7.37287 3.18226 7.51872 3.14881 7.6659C3.1011 7.85592 2.98093 8.01972 2.81401 8.12227C2.64709 8.22483 2.44666 8.258 2.2556 8.2147C2.06453 8.17139 1.898 8.05504 1.79161 7.89053C1.68522 7.72602 1.64743 7.52642 1.68631 7.3344C1.72831 7.14915 1.77706 6.9669 1.83256 6.7869C1.89116 6.59686 2.02285 6.43787 2.19866 6.3449C2.37446 6.25194 2.58 6.2326 2.77006 6.29115Z" fill="#ED1C24"/>
</g>
<defs>
<clipPath id="clip0_1645_3669">
<rect width="18" height="18" fill="white"/>
</clipPath>
</defs>
</svg>
