<svg width="14" height="14" viewBox="0 0 14 14" fill="none" xmlns="http://www.w3.org/2000/svg">
    <g clip-path="url(#clip0_3509_2441)">
        <path
            d="M4.73785 2.02067C5.12576 1.63217 5.77851 1.88067 5.82985 2.40683L5.83335 2.47392V11.6667C5.83318 11.8153 5.77625 11.9584 5.67419 12.0665C5.57212 12.1746 5.43263 12.2396 5.2842 12.2483C5.13578 12.2571 4.98963 12.2088 4.87561 12.1133C4.7616 12.0179 4.68832 11.8826 4.67076 11.7349L4.66668 11.6667V3.7415L3.3291 5.07908C3.22412 5.1837 3.08326 5.24444 2.93512 5.24897C2.78699 5.25349 2.64268 5.20146 2.53152 5.10344C2.42036 5.00542 2.35067 4.86876 2.33661 4.72122C2.32256 4.57368 2.36519 4.42633 2.45585 4.30908L2.50426 4.25425L4.73843 2.02008L4.73785 2.02067ZM8.75001 1.75C8.89289 1.75002 9.03079 1.80247 9.13757 1.89742C9.24434 1.99236 9.31255 2.12319 9.32926 2.26508L9.33335 2.33333V10.2585L10.6709 8.92092C10.7759 8.8163 10.9168 8.75556 11.0649 8.75103C11.213 8.74651 11.3573 8.79854 11.4685 8.89656C11.5797 8.99458 11.6494 9.13124 11.6634 9.27878C11.6775 9.42631 11.6348 9.57367 11.5442 9.69092L11.4958 9.74575L9.2616 11.9799C8.87426 12.3678 8.22151 12.1193 8.17018 11.5932L8.16668 11.5261V2.33333C8.16668 2.17862 8.22814 2.03025 8.33754 1.92085C8.44693 1.81146 8.5953 1.75 8.75001 1.75Z"
            fill="white" />
    </g>
    <defs>
        <clipPath id="clip0_3509_2441">
            <rect width="14" height="14" fill="white" />
        </clipPath>
    </defs>
</svg>