<svg width="18" height="14" viewBox="0 0 18 14" fill="none" xmlns="http://www.w3.org/2000/svg">
    <g filter="url(#filter0_b_228_128918)">
        <rect width="18" height="14" rx="2" fill="white" />
        <rect width="18" height="14" rx="2" fill="url(#paint0_linear_228_128918)" />
        <rect x="0.5" y="0.5" width="17" height="13" rx="1.5" stroke="#ED1C25" />
        <path
            d="M7.19162 4.18182H8.42173V7.96023C8.42173 8.38447 8.32041 8.75568 8.11776 9.07386C7.917 9.39205 7.63575 9.64015 7.27401 9.81818C6.91226 9.99432 6.49086 10.0824 6.0098 10.0824C5.52685 10.0824 5.1045 9.99432 4.74276 9.81818C4.38101 9.64015 4.09976 9.39205 3.89901 9.07386C3.69825 8.75568 3.59787 8.38447 3.59787 7.96023V4.18182H4.82798V7.85511C4.82798 8.0767 4.87628 8.27367 4.97287 8.44602C5.07135 8.61837 5.20961 8.75379 5.38764 8.85227C5.56567 8.95076 5.77306 9 6.0098 9C6.24844 9 6.45582 8.95076 6.63196 8.85227C6.80999 8.75379 6.9473 8.61837 7.04389 8.44602C7.14238 8.27367 7.19162 8.0767 7.19162 7.85511V4.18182ZM10.2338 10V4.18182H12.5293C12.9705 4.18182 13.3465 4.2661 13.6571 4.43466C13.9677 4.60133 14.2045 4.83333 14.3673 5.13068C14.5321 5.42614 14.6145 5.76705 14.6145 6.15341C14.6145 6.53977 14.5312 6.88068 14.3645 7.17614C14.1978 7.47159 13.9563 7.7017 13.6401 7.86648C13.3257 8.03125 12.945 8.11364 12.498 8.11364H11.0349V7.12784H12.2991C12.5359 7.12784 12.731 7.08712 12.8844 7.00568C13.0397 6.92235 13.1552 6.80777 13.231 6.66193C13.3086 6.5142 13.3474 6.3447 13.3474 6.15341C13.3474 5.96023 13.3086 5.79167 13.231 5.64773C13.1552 5.50189 13.0397 5.3892 12.8844 5.30966C12.7291 5.22822 12.5321 5.1875 12.2935 5.1875H11.4639V10H10.2338Z"
            fill="#ED1C25" />
    </g>
    <defs>
        <filter id="filter0_b_228_128918" x="-2.4" y="-2.4" width="22.8" height="18.8" filterUnits="userSpaceOnUse"
            color-interpolation-filters="sRGB">
            <feFlood flood-opacity="0" result="BackgroundImageFix" />
            <feGaussianBlur in="BackgroundImageFix" stdDeviation="1.2" />
            <feComposite in2="SourceAlpha" operator="in" result="effect1_backgroundBlur_228_128918" />
            <feBlend mode="normal" in="SourceGraphic" in2="effect1_backgroundBlur_228_128918" result="shape" />
        </filter>
        <linearGradient id="paint0_linear_228_128918" x1="10.5" y1="9" x2="0.909829" y2="-0.590169"
            gradientUnits="userSpaceOnUse">
            <stop offset="0.5" stop-color="white" />
            <stop offset="0.51" stop-color="#ED1C25" stop-opacity="0.2" />
        </linearGradient>
    </defs>
</svg>