<svg width="25" height="24" viewBox="0 0 25 24" fill="none" xmlns="http://www.w3.org/2000/svg">
    <g clip-path="url(#clip0_594_11808)">
        <path fill-rule="evenodd" clip-rule="evenodd"
            d="M13.487 5.74011C13.8713 5.52216 14.1725 5.18313 14.3438 4.77594C14.5151 4.36875 14.5467 3.91631 14.4338 3.48924C14.3209 3.06216 14.0697 2.6845 13.7196 2.41518C13.3694 2.14586 12.94 2.00004 12.4982 2.00049C12.0565 2.00094 11.6273 2.14762 11.2777 2.41766C10.9281 2.68769 10.6777 3.06586 10.5657 3.49316C10.4536 3.92046 10.4862 4.37284 10.6583 4.77968C10.8304 5.18652 11.1323 5.52494 11.517 5.74211L11.507 5.76011C10.852 7.12711 9.94201 9.08511 8.53701 9.82011C7.38301 10.4231 5.72701 10.1201 4.49701 9.89411C4.47728 9.61442 4.37956 9.34586 4.21492 9.1189C4.05028 8.89195 3.82533 8.71567 3.56559 8.61009C3.30585 8.5045 3.02171 8.47383 2.74541 8.52156C2.46912 8.56928 2.21174 8.69349 2.00246 8.88009C1.79319 9.06669 1.6404 9.30821 1.56144 9.57725C1.48248 9.84628 1.48051 10.1321 1.55574 10.4022C1.63098 10.6723 1.78041 10.9159 1.98709 11.1053C2.19376 11.2948 2.44941 11.4226 2.72501 11.4741L5.67301 19.0841C5.89164 19.6483 6.27574 20.1332 6.77491 20.4751C7.27407 20.817 7.86496 21 8.47001 21.0001H16.53C17.1351 21 17.726 20.817 18.2251 20.4751C18.7243 20.1332 19.1084 19.6483 19.327 19.0841L22.274 11.4741C22.5479 11.4231 22.8022 11.2969 23.0083 11.1096C23.2145 10.9222 23.3644 10.6812 23.4413 10.4134C23.5182 10.1457 23.519 9.8618 23.4436 9.59362C23.3683 9.32543 23.2197 9.08353 23.0146 8.89503C22.8095 8.70652 22.5559 8.57885 22.2824 8.52633C22.0088 8.47381 21.726 8.49851 21.4657 8.59767C21.2053 8.69682 20.9778 8.86651 20.8084 9.08772C20.6391 9.30893 20.5347 9.57292 20.507 9.85011C19.248 10.0131 17.625 10.2211 16.463 9.61411C15.086 8.89411 14.163 7.07111 13.487 5.74011ZM12.525 8.10711C13.293 9.35311 14.214 10.6941 15.537 11.3871C16.864 12.0801 18.497 12.0451 19.957 11.9201L17.462 18.3611C17.3892 18.5492 17.2613 18.7108 17.0949 18.8249C16.9286 18.9389 16.7317 19 16.53 19.0001H8.47001C8.26835 19 8.07143 18.9389 7.9051 18.8249C7.73878 18.7108 7.61082 18.5492 7.53801 18.3611L5.07701 12.0081C6.51601 12.1921 8.14401 12.2821 9.46301 11.5921C10.841 10.8721 11.763 9.42011 12.525 8.10711Z"
            fill="currentColor" />
    </g>
    <defs>
        <clipPath id="clip0_594_11808">
            <rect width="24" height="24" fill="white" transform="translate(0.5)" />
        </clipPath>
    </defs>
</svg>