<svg width="22" height="22" viewBox="0 0 22 22" fill="none" xmlns="http://www.w3.org/2000/svg">
    <g filter="url(#filter0_b_4489_22051)">
        <rect y="-0.000488281" width="32" height="32" rx="6" fill="#E1E1E1" />
        <path
            d="M8.50975 15.525C8.41075 15.525 8.27875 15.5195 8.11375 15.5085C7.95425 15.503 7.7645 15.4948 7.5445 15.4838L7.4785 14.4443C7.66 14.4553 7.8195 14.4635 7.957 14.469C8.0945 14.4745 8.19625 14.4773 8.26225 14.4773C8.42175 14.4773 8.53175 14.4745 8.59225 14.469C8.65825 14.458 8.6995 14.4278 8.716 14.3783C8.7325 14.3288 8.74075 14.2463 8.74075 14.1308V12.852H5.515V11.8043H8.74075V11.2763H5.5315V10.2368H7.35475V9.62626H5.746V8.61976H7.35475V7.84426H8.65V8.61976H10.5063V9.62626H8.65V10.2368H10.8528V11.2763H10.0278V11.8043H10.8528V12.852H10.0278V14.0153C10.0278 14.3618 10.0113 14.6368 9.97825 14.8403C9.95075 15.0493 9.8875 15.2005 9.7885 15.294C9.695 15.393 9.5465 15.4563 9.343 15.4838C9.1395 15.5113 8.86175 15.525 8.50975 15.525ZM3.8815 15.5498V11.5073H5.1355V15.5498H3.8815ZM3.31225 13.3388L3.007 11.994C3.2875 11.7795 3.535 11.5733 3.7495 11.3753C3.964 11.1773 4.16475 10.9628 4.35175 10.7318C4.53875 10.4953 4.734 10.2203 4.9375 9.90676L5.9605 10.5173C5.7955 10.8308 5.603 11.1333 5.383 11.4248C5.163 11.7163 4.91825 11.9995 4.64875 12.2745L4.591 11.697C4.536 11.818 4.459 11.9555 4.36 12.1095C4.2665 12.258 4.15925 12.4093 4.03825 12.5633C3.92275 12.7173 3.799 12.863 3.667 13.0005C3.5405 13.138 3.42225 13.2508 3.31225 13.3388ZM7.12375 14.8403C6.91475 14.6148 6.69475 14.3865 6.46375 14.1555C6.23275 13.919 6.00175 13.6963 5.77075 13.4873L6.59575 12.6953C6.82675 12.8988 7.05775 13.1215 7.28875 13.3635C7.51975 13.6 7.73975 13.831 7.94875 14.0565L7.12375 14.8403ZM3.62575 10.4595L3.13075 9.37051C3.38925 9.21651 3.61475 9.06526 3.80725 8.91676C4.00525 8.76826 4.1895 8.60876 4.36 8.43826C4.5305 8.26776 4.7065 8.07251 4.888 7.85251L5.80375 8.50426C5.57825 8.79576 5.35825 9.05151 5.14375 9.27151C4.92925 9.49151 4.701 9.69501 4.459 9.88201C4.2225 10.069 3.94475 10.2615 3.62575 10.4595ZM16.8753 15.1208C16.1823 15.1208 15.58 15.0053 15.0685 14.7743C14.557 14.5488 14.161 14.227 13.8805 13.809C13.6 13.391 13.4598 12.8988 13.4598 12.3323C13.4598 11.9363 13.5258 11.5678 13.6578 11.2268C13.7898 10.8858 13.9795 10.5833 14.227 10.3193C14.48 10.0498 14.7798 9.83526 15.1263 9.67576L15.2583 9.93976L11.6695 10.0223V8.82601L18.7068 8.66101V9.85726L17.6508 9.88201C17.2713 9.88751 16.9138 9.94526 16.5783 10.0553C16.2428 10.1653 15.9485 10.322 15.6955 10.5255C15.4425 10.7235 15.2445 10.9628 15.1015 11.2433C14.964 11.5238 14.8953 11.84 14.8953 12.192C14.8953 12.555 14.9723 12.863 15.1263 13.116C15.2803 13.3635 15.5058 13.556 15.8028 13.6935C16.1053 13.8255 16.4655 13.8915 16.8835 13.8915C17.0375 13.8915 17.2108 13.8833 17.4033 13.8668C17.5958 13.8503 17.7745 13.8255 17.9395 13.7925L18.088 15.0218C17.8845 15.0548 17.6755 15.0795 17.461 15.096C17.252 15.1125 17.0568 15.1208 16.8753 15.1208ZM23.7475 15.2033C23.126 15.2033 22.6365 15.0575 22.279 14.766C21.927 14.4745 21.751 14.0703 21.751 13.5533C21.751 13.0308 21.927 12.6265 22.279 12.3405C22.631 12.049 23.1205 11.9033 23.7475 11.9033C24.006 11.9033 24.2535 11.9363 24.49 12.0023C24.7265 12.0683 24.974 12.1838 25.2325 12.3488C25.491 12.5083 25.7825 12.7338 26.107 13.0253C26.437 13.3168 26.8275 13.6908 27.2785 14.1473L26.47 15.03C26.0685 14.6175 25.7275 14.282 25.447 14.0235C25.172 13.7595 24.9328 13.556 24.7293 13.413C24.5313 13.27 24.3498 13.171 24.1848 13.116C24.0198 13.061 23.852 13.0335 23.6815 13.0335C23.192 13.0335 22.9473 13.2068 22.9473 13.5533C22.9473 13.8998 23.192 14.073 23.6815 14.073C23.9455 14.073 24.1325 14.0208 24.2425 13.9163C24.3525 13.8118 24.4075 13.6413 24.4075 13.4048V10.2368V8.49601H25.711V10.2368V13.4708C25.711 14.0318 25.5405 14.4608 25.1995 14.7578C24.8585 15.0548 24.3745 15.2033 23.7475 15.2033ZM20.2 15.3105C20.068 14.7495 19.969 14.1885 19.903 13.6275C19.837 13.0665 19.804 12.478 19.804 11.862C19.804 11.246 19.837 10.6603 19.903 10.1048C19.969 9.54376 20.068 8.98276 20.2 8.42176L21.52 8.57026C21.3935 9.09276 21.2973 9.62901 21.2313 10.179C21.1708 10.7235 21.1405 11.2845 21.1405 11.862C21.1405 12.4395 21.1708 13.0033 21.2313 13.5533C21.2973 14.0978 21.3935 14.6313 21.52 15.1538L20.2 15.3105ZM21.8665 10.6905V9.56851H27.13V10.6905H21.8665ZM25.3893 9.48601C25.3398 9.21651 25.282 8.96351 25.216 8.72701C25.1555 8.48501 25.0813 8.24301 24.9933 8.00101L25.8925 7.78651C25.986 8.02301 26.063 8.26501 26.1235 8.51251C26.184 8.75451 26.239 9.01576 26.2885 9.29626L25.3893 9.48601ZM26.6433 9.37876C26.5993 9.10926 26.547 8.85626 26.4865 8.61976C26.4315 8.37776 26.36 8.13301 26.272 7.88551L27.163 7.69576C27.251 7.93776 27.3253 8.18251 27.3858 8.43001C27.4463 8.67751 27.4958 8.93876 27.5343 9.21376L26.6433 9.37876Z"
            fill="#AFAFAF" />
        <path
            d="M3.37375 22.9213V21.9148H4.0915V20.999H3.20875V19.8935H4.0915V18.3508H5.25475V19.8935H10.8813V20.999H5.25475V21.9148H8.83525V19.0273H8.3815V21.9148H7.276V19.0273H6.814V21.9148H5.7085V19.0273H4.6525V17.9878H10.5513V19.0273H9.9985V21.9148H10.7163V22.9213H3.37375ZM4.19875 25.1405L3.2005 24.5218C3.4095 24.2468 3.59925 23.98 3.76975 23.7215C3.94025 23.463 4.10525 23.1935 4.26475 22.913L5.30425 23.4245C5.01275 24.002 4.64425 24.574 4.19875 25.1405ZM5.74975 25.1075C5.72225 24.816 5.6865 24.5245 5.6425 24.233C5.5985 23.936 5.549 23.6225 5.494 23.2925L6.70675 23.1688C6.76725 23.4878 6.81675 23.7985 6.85525 24.101C6.89925 24.4035 6.93775 24.6978 6.97075 24.9838L5.74975 25.1075ZM7.7215 25.0993C7.6445 24.8133 7.5565 24.5245 7.4575 24.233C7.364 23.9415 7.2595 23.6363 7.144 23.3173L8.3155 23.078C8.431 23.397 8.5355 23.705 8.629 24.002C8.728 24.2935 8.816 24.5795 8.893 24.86L7.7215 25.0993ZM4.31425 19.8688L3.19225 19.2995C3.50025 18.9695 3.78075 18.6368 4.03375 18.3013C4.28675 17.9603 4.51775 17.611 4.72675 17.2535L5.956 17.5093C5.7525 17.9218 5.5105 18.3315 5.23 18.7385C4.9495 19.1455 4.64425 19.5223 4.31425 19.8688ZM9.85825 25.0993C9.69875 24.8243 9.53375 24.5493 9.36325 24.2743C9.19275 24.0048 9.003 23.7188 8.794 23.4163L9.82525 22.8718C10.0233 23.1633 10.2103 23.4493 10.3863 23.7298C10.5678 24.0103 10.7355 24.2853 10.8895 24.5548L9.85825 25.0993ZM13.2078 25.0498V21.1805H12.1352V20.1493H13.2407V17.5093H14.338V20.1493H15.295V21.1805H14.3628V25.0498H13.2078ZM12.4157 24.3073L11.9372 23.0203C12.2672 22.6133 12.5312 22.198 12.7292 21.7745C12.9328 21.351 13.084 20.9028 13.183 20.4298L13.6285 20.7433C13.601 21.2163 13.5295 21.6783 13.414 22.1293C13.304 22.5748 13.161 22.9845 12.985 23.3585C12.8145 23.7325 12.6247 24.0488 12.4157 24.3073ZM14.7918 23.4575C14.6158 23.0395 14.437 22.6243 14.2555 22.2118C14.0795 21.7938 13.8898 21.3565 13.6862 20.9L14.371 20.5288C14.569 20.9083 14.7615 21.2823 14.9485 21.6508C15.1355 22.0138 15.3253 22.3905 15.5178 22.781L14.7918 23.4575ZM12.5065 20.0255C12.4295 19.712 12.347 19.3903 12.259 19.0603C12.171 18.7303 12.0857 18.4305 12.0032 18.161L12.8447 17.8558C12.9328 18.1308 13.0153 18.4305 13.0923 18.755C13.1748 19.074 13.249 19.3985 13.315 19.7285L12.5065 20.0255ZM15.2785 24.002L15.1713 22.8965L19.8903 22.0138L19.9975 23.1193L15.2785 24.002ZM16.8543 22.3108C16.6122 22.0468 16.3538 21.7718 16.0788 21.4858C15.8038 21.1998 15.5123 20.9138 15.2043 20.6278L16.0623 19.8358C16.3702 20.1163 16.6618 20.3968 16.9368 20.6773C17.2173 20.9523 17.4758 21.2245 17.7123 21.494L16.8543 22.3108ZM15.0393 20.0338L14.1977 19.6955C14.3077 19.404 14.4068 19.0905 14.4948 18.755C14.5828 18.4195 14.6515 18.106 14.701 17.8145L15.6085 18.0125C15.5425 18.3315 15.4573 18.6698 15.3528 19.0273C15.2538 19.3793 15.1493 19.7148 15.0393 20.0338ZM17.9845 25.0498V17.5093H19.2633V25.0498H17.9845ZM17.1843 20.1163C16.9753 19.8798 16.7498 19.6378 16.5078 19.3903C16.2658 19.1428 16.0127 18.8925 15.7488 18.6395L16.6068 17.8558C16.8708 18.0978 17.1238 18.3398 17.3657 18.5818C17.6078 18.8238 17.8333 19.0603 18.0423 19.2913L17.1843 20.1163Z"
            fill="#AFAFAF" />
        <path
            d="M25.7407 23.3236C25.9268 22.9007 26.2442 22.5491 26.6459 22.3208C26.7059 22.2871 26.7059 22.2008 26.6459 22.1671C26.244 21.9388 25.9265 21.587 25.7403 21.164C25.7332 21.148 25.7216 21.1345 25.7069 21.125C25.6923 21.1155 25.6752 21.1105 25.6578 21.1105C25.6403 21.1105 25.6233 21.1155 25.6086 21.125C25.594 21.1345 25.5824 21.148 25.5753 21.164C25.389 21.5869 25.0715 21.9385 24.6697 22.1667C24.6561 22.1744 24.6448 22.1856 24.637 22.1991C24.6291 22.2126 24.625 22.228 24.625 22.2436C24.625 22.2592 24.6291 22.2745 24.637 22.288C24.6448 22.3015 24.6561 22.3127 24.6697 22.3205C25.0716 22.5489 25.3892 22.9008 25.5753 23.324C25.5824 23.3399 25.594 23.3534 25.6086 23.3629C25.6233 23.3724 25.6403 23.3774 25.6578 23.3774C25.6752 23.3774 25.6923 23.3724 25.7069 23.3629C25.7216 23.3534 25.7332 23.3399 25.7403 23.324L25.7407 23.3236Z"
            fill="#AFAFAF" />
        <path
            d="M23.6201 20.6693C23.8904 20.0398 24.3514 19.5163 24.9347 19.1765C25.0218 19.1262 25.0218 18.9978 24.9347 18.9476C24.3511 18.6077 23.8899 18.084 23.6196 17.4541C23.6092 17.4304 23.5924 17.4103 23.5711 17.3962C23.5499 17.382 23.5251 17.3745 23.4997 17.3745C23.4744 17.3745 23.4496 17.382 23.4284 17.3962C23.4071 17.4103 23.3903 17.4304 23.3799 17.4541C23.1095 18.0837 22.6483 18.6072 22.0648 18.947C22.0451 18.9585 22.0288 18.9752 22.0174 18.9953C22.006 19.0154 22 19.0382 22 19.0615C22 19.0847 22.006 19.1075 22.0174 19.1276C22.0288 19.1477 22.0451 19.1644 22.0648 19.1759C22.6485 19.516 23.1097 20.0399 23.3799 20.6699C23.3903 20.6936 23.4071 20.7137 23.4284 20.7279C23.4496 20.742 23.4744 20.7495 23.4997 20.7495C23.5251 20.7495 23.5499 20.742 23.5711 20.7279C23.5924 20.7137 23.6092 20.6936 23.6196 20.6699L23.6201 20.6693Z"
            fill="#AFAFAF" />
    </g>
    <defs>
        <filter id="filter0_b_4489_22051" x="-3" y="-3.00049" width="38" height="38" filterUnits="userSpaceOnUse"
            color-interpolation-filters="sRGB">
            <feFlood flood-opacity="0" result="BackgroundImageFix" />
            <feGaussianBlur in="BackgroundImageFix" stdDeviation="1.5" />
            <feComposite in2="SourceAlpha" operator="in" result="effect1_backgroundBlur_4489_22051" />
            <feBlend mode="normal" in="SourceGraphic" in2="effect1_backgroundBlur_4489_22051" result="shape" />
        </filter>
    </defs>
</svg>