<svg width="22" height="22" viewBox="0 0 22 22" fill="none" xmlns="http://www.w3.org/2000/svg">
    <g filter="url(#filter0_b_3479_2238)">
        <rect width="21.3333" height="21.3333" rx="4" fill="url(#paint0_linear_3479_2238)" fill-opacity="0.76" />
        <g filter="url(#filter1_d_3479_2238)">
            <path
                d="M6.0065 10.017C5.9405 10.017 5.8525 10.0133 5.7425 10.006C5.63617 10.0023 5.50967 9.99683 5.363 9.9895L5.319 9.2965C5.44 9.30383 5.54633 9.30933 5.638 9.313C5.72967 9.31667 5.7975 9.3185 5.8415 9.3185C5.94783 9.3185 6.02117 9.31667 6.0615 9.313C6.1055 9.30567 6.133 9.2855 6.144 9.2525C6.155 9.2195 6.1605 9.1645 6.1605 9.0875V8.235H4.01V7.5365H6.1605V7.1845H4.021V6.4915H5.2365V6.0845H4.164V5.4135H5.2365V4.8965H6.1V5.4135H7.3375V6.0845H6.1V6.4915H7.5685V7.1845H7.0185V7.5365H7.5685V8.235H7.0185V9.0105C7.0185 9.2415 7.0075 9.42483 6.9855 9.5605C6.96717 9.69983 6.925 9.80067 6.859 9.863C6.79667 9.929 6.69767 9.97117 6.562 9.9895C6.42633 10.0078 6.24117 10.017 6.0065 10.017ZM2.921 10.0335V7.3385H3.757V10.0335H2.921ZM2.5415 8.5595L2.338 7.663C2.525 7.52 2.69 7.3825 2.833 7.2505C2.976 7.1185 3.10983 6.9755 3.2345 6.8215C3.35917 6.66383 3.48933 6.4805 3.625 6.2715L4.307 6.6785C4.197 6.8875 4.06867 7.08917 3.922 7.2835C3.77533 7.47783 3.61217 7.66667 3.4325 7.85L3.394 7.465C3.35733 7.54567 3.306 7.63733 3.24 7.74C3.17767 7.839 3.10617 7.93983 3.0255 8.0425C2.9485 8.14517 2.866 8.24233 2.778 8.334C2.69367 8.42567 2.61483 8.50083 2.5415 8.5595ZM5.0825 9.5605C4.94317 9.41017 4.7965 9.258 4.6425 9.104C4.4885 8.94633 4.3345 8.79783 4.1805 8.6585L4.7305 8.1305C4.8845 8.26617 5.0385 8.41467 5.1925 8.576C5.3465 8.73367 5.49317 8.88767 5.6325 9.038L5.0825 9.5605ZM2.7505 6.64L2.4205 5.914C2.59283 5.81133 2.74317 5.7105 2.8715 5.6115C3.0035 5.5125 3.12633 5.40617 3.24 5.2925C3.35367 5.17883 3.471 5.04867 3.592 4.902L4.2025 5.3365C4.05217 5.53083 3.9055 5.70133 3.7625 5.848C3.6195 5.99467 3.46733 6.13033 3.306 6.255C3.14833 6.37967 2.96317 6.508 2.7505 6.64ZM11.5835 9.7475C11.1215 9.7475 10.72 9.6705 10.379 9.5165C10.038 9.36617 9.774 9.15167 9.587 8.873C9.4 8.59433 9.3065 8.26617 9.3065 7.8885C9.3065 7.6245 9.3505 7.37883 9.4385 7.1515C9.5265 6.92417 9.653 6.7225 9.818 6.5465C9.98667 6.36683 10.1865 6.22383 10.4175 6.1175L10.5055 6.2935L8.113 6.3485V5.551L12.8045 5.441V6.2385L12.1005 6.255C11.8475 6.25867 11.6092 6.29717 11.3855 6.3705C11.1618 6.44383 10.9657 6.54833 10.797 6.684C10.6283 6.816 10.4963 6.9755 10.401 7.1625C10.3093 7.3495 10.2635 7.56033 10.2635 7.795C10.2635 8.037 10.3148 8.24233 10.4175 8.411C10.5202 8.576 10.6705 8.70433 10.8685 8.796C11.0702 8.884 11.3103 8.928 11.589 8.928C11.6917 8.928 11.8072 8.9225 11.9355 8.9115C12.0638 8.9005 12.183 8.884 12.293 8.862L12.392 9.6815C12.2563 9.7035 12.117 9.72 11.974 9.731C11.8347 9.742 11.7045 9.7475 11.5835 9.7475ZM16.165 9.8025C15.7507 9.8025 15.4243 9.70533 15.186 9.511C14.9513 9.31667 14.834 9.04717 14.834 8.7025C14.834 8.35417 14.9513 8.08467 15.186 7.894C15.4207 7.69967 15.747 7.6025 16.165 7.6025C16.3373 7.6025 16.5023 7.6245 16.66 7.6685C16.8177 7.7125 16.9827 7.7895 17.155 7.8995C17.3273 8.00583 17.5217 8.15617 17.738 8.3505C17.958 8.54483 18.2183 8.79417 18.519 9.0985L17.98 9.687C17.7123 9.412 17.485 9.18833 17.298 9.016C17.1147 8.84 16.9552 8.70433 16.8195 8.609C16.6875 8.51367 16.5665 8.44767 16.4565 8.411C16.3465 8.37433 16.2347 8.356 16.121 8.356C15.7947 8.356 15.6315 8.4715 15.6315 8.7025C15.6315 8.9335 15.7947 9.049 16.121 9.049C16.297 9.049 16.4217 9.01417 16.495 8.9445C16.5683 8.87483 16.605 8.76117 16.605 8.6035V6.4915V5.331H17.474V6.4915V8.6475C17.474 9.0215 17.3603 9.3075 17.133 9.5055C16.9057 9.7035 16.583 9.8025 16.165 9.8025ZM13.8 9.874C13.712 9.5 13.646 9.126 13.602 8.752C13.558 8.378 13.536 7.98567 13.536 7.575C13.536 7.16433 13.558 6.77383 13.602 6.4035C13.646 6.0295 13.712 5.6555 13.8 5.2815L14.68 5.3805C14.5957 5.72883 14.5315 6.08633 14.4875 6.453C14.4472 6.816 14.427 7.19 14.427 7.575C14.427 7.96 14.4472 8.33583 14.4875 8.7025C14.5315 9.0655 14.5957 9.42117 14.68 9.7695L13.8 9.874ZM14.911 6.794V6.046H18.42V6.794H14.911ZM17.2595 5.991C17.2265 5.81133 17.188 5.64267 17.144 5.485C17.1037 5.32367 17.0542 5.16233 16.9955 5.001L17.595 4.858C17.6573 5.01567 17.7087 5.177 17.749 5.342C17.7893 5.50333 17.826 5.6775 17.859 5.8645L17.2595 5.991ZM18.0955 5.9195C18.0662 5.73983 18.0313 5.57117 17.991 5.4135C17.9543 5.25217 17.9067 5.089 17.848 4.924L18.442 4.7975C18.5007 4.95883 18.5502 5.122 18.5905 5.287C18.6308 5.452 18.6638 5.62617 18.6895 5.8095L18.0955 5.9195Z"
                fill="white" />
        </g>
        <g filter="url(#filter2_d_3479_2238)">
            <path
                d="M2.5825 15.6145V14.9435H3.061V14.333H2.4725V13.596H3.061V12.5675H3.8365V13.596H7.5875V14.333H3.8365V14.9435H6.2235V13.0185H5.921V14.9435H5.184V13.0185H4.876V14.9435H4.139V13.0185H3.435V12.3255H7.3675V13.0185H6.999V14.9435H7.4775V15.6145H2.5825ZM3.1325 17.094L2.467 16.6815C2.60633 16.4982 2.73283 16.3203 2.8465 16.148C2.96017 15.9757 3.07017 15.796 3.1765 15.609L3.8695 15.95C3.67517 16.335 3.4295 16.7163 3.1325 17.094ZM4.1665 17.072C4.14817 16.8777 4.12433 16.6833 4.095 16.489C4.06567 16.291 4.03267 16.082 3.996 15.862L4.8045 15.7795C4.84483 15.9922 4.87783 16.1993 4.9035 16.401C4.93283 16.6027 4.9585 16.7988 4.9805 16.9895L4.1665 17.072ZM5.481 17.0665C5.42967 16.8758 5.371 16.6833 5.305 16.489C5.24267 16.2947 5.173 16.0912 5.096 15.8785L5.877 15.719C5.954 15.9317 6.02367 16.137 6.086 16.335C6.152 16.5293 6.21067 16.72 6.262 16.907L5.481 17.0665ZM3.2095 13.5795L2.4615 13.2C2.66683 12.98 2.85383 12.7582 3.0225 12.5345C3.19117 12.3072 3.34517 12.0743 3.4845 11.836L4.304 12.0065C4.16833 12.2815 4.007 12.5547 3.82 12.826C3.633 13.0973 3.4295 13.3485 3.2095 13.5795ZM6.9055 17.0665C6.79917 16.8832 6.68917 16.6998 6.5755 16.5165C6.46183 16.3368 6.33533 16.1462 6.196 15.9445L6.8835 15.5815C7.0155 15.7758 7.14017 15.9665 7.2575 16.1535C7.3785 16.3405 7.49033 16.5238 7.593 16.7035L6.9055 17.0665ZM9.1385 17.0335V14.454H8.4235V13.7665H9.1605V12.0065H9.892V13.7665H10.53V14.454H9.9085V17.0335H9.1385ZM8.6105 16.5385L8.2915 15.6805C8.5115 15.4092 8.6875 15.1323 8.8195 14.85C8.95517 14.5677 9.056 14.2688 9.122 13.9535L9.419 14.1625C9.40067 14.4778 9.353 14.7858 9.276 15.0865C9.20267 15.3835 9.10733 15.6567 8.99 15.906C8.87633 16.1553 8.74983 16.3662 8.6105 16.5385ZM10.1945 15.972C10.0772 15.6933 9.958 15.4165 9.837 15.1415C9.71967 14.8628 9.59317 14.5713 9.4575 14.267L9.914 14.0195C10.046 14.2725 10.1743 14.5218 10.299 14.7675C10.4237 15.0095 10.5502 15.2607 10.6785 15.521L10.1945 15.972ZM8.671 13.684C8.61967 13.475 8.56467 13.2605 8.506 13.0405C8.44733 12.8205 8.3905 12.6207 8.3355 12.441L8.8965 12.2375C8.95517 12.4208 9.01017 12.6207 9.0615 12.837C9.1165 13.0497 9.166 13.266 9.21 13.486L8.671 13.684ZM10.519 16.335L10.4475 15.598L13.5935 15.0095L13.665 15.7465L10.519 16.335ZM11.5695 15.2075C11.4082 15.0315 11.2358 14.8482 11.0525 14.6575C10.8692 14.4668 10.6748 14.2762 10.4695 14.0855L11.0415 13.5575C11.2468 13.7445 11.4412 13.9315 11.6245 14.1185C11.8115 14.3018 11.9838 14.4833 12.1415 14.663L11.5695 15.2075ZM10.3595 13.6895L9.7985 13.464C9.87183 13.2697 9.93783 13.0607 9.9965 12.837C10.0552 12.6133 10.101 12.4043 10.134 12.21L10.739 12.342C10.695 12.5547 10.6382 12.7802 10.5685 13.0185C10.5025 13.2532 10.4328 13.4768 10.3595 13.6895ZM12.323 17.0335V12.0065H13.1755V17.0335H12.323ZM11.7895 13.7445C11.6502 13.5868 11.4998 13.4255 11.3385 13.2605C11.1772 13.0955 11.0085 12.9287 10.8325 12.76L11.4045 12.2375C11.5805 12.3988 11.7492 12.5602 11.9105 12.7215C12.0718 12.8828 12.2222 13.0405 12.3615 13.1945L11.7895 13.7445Z"
                fill="white" />
        </g>
        <g filter="url(#filter3_d_3479_2238)">
            <path
                d="M17.4938 16.2161C17.6179 15.9342 17.8295 15.6997 18.0973 15.5476C18.1373 15.5251 18.1373 15.4676 18.0973 15.4451C17.8294 15.2928 17.6176 15.0583 17.4935 14.7763C17.4888 14.7657 17.4811 14.7567 17.4713 14.7503C17.4615 14.744 17.4501 14.7406 17.4385 14.7406C17.4269 14.7406 17.4155 14.744 17.4057 14.7503C17.396 14.7567 17.3883 14.7657 17.3835 14.7763C17.2594 15.0582 17.0476 15.2927 16.7798 15.4448C16.7707 15.45 16.7632 15.4574 16.758 15.4664C16.7528 15.4754 16.75 15.4856 16.75 15.4961C16.75 15.5065 16.7528 15.5167 16.758 15.5257C16.7632 15.5347 16.7707 15.5421 16.7798 15.5473C17.0477 15.6996 17.2594 15.9342 17.3835 16.2163C17.3883 16.2269 17.396 16.2359 17.4057 16.2423C17.4155 16.2486 17.4269 16.252 17.4385 16.252C17.4501 16.252 17.4615 16.2486 17.4713 16.2423C17.4811 16.2359 17.4888 16.2269 17.4935 16.2163L17.4938 16.2161Z"
                fill="white" />
            <path
                d="M16.0801 14.4463C16.2603 14.0266 16.5676 13.6776 16.9564 13.4511C17.0145 13.4176 17.0145 13.332 16.9564 13.2985C16.5674 13.0719 16.2599 12.7227 16.0797 12.3028C16.0728 12.287 16.0616 12.2736 16.0474 12.2642C16.0332 12.2548 16.0167 12.2498 15.9998 12.2498C15.9829 12.2498 15.9664 12.2548 15.9522 12.2642C15.9381 12.2736 15.9269 12.287 15.92 12.3028C15.7397 12.7226 15.4322 13.0716 15.0432 13.2981C15.0301 13.3058 15.0192 13.3169 15.0116 13.3303C15.004 13.3437 15 13.3589 15 13.3744C15 13.3899 15.004 13.4051 15.0116 13.4185C15.0192 13.4319 15.0301 13.443 15.0432 13.4507C15.4323 13.6774 15.7398 14.0267 15.92 14.4467C15.9269 14.4625 15.9381 14.4759 15.9522 14.4853C15.9664 14.4947 15.9829 14.4998 15.9998 14.4998C16.0167 14.4998 16.0332 14.4947 16.0474 14.4853C16.0616 14.4759 16.0728 14.4625 16.0797 14.4467L16.0801 14.4463Z"
                fill="white" />
        </g>
    </g>
    <defs>
        <filter id="filter0_b_3479_2238" x="-1.66699" y="-1.66675" width="25.333" height="25.3333"
            filterUnits="userSpaceOnUse" color-interpolation-filters="sRGB">
            <feFlood flood-opacity="0" result="BackgroundImageFix" />
            <feGaussianBlur in="BackgroundImageFix" stdDeviation="1" />
            <feComposite in2="SourceAlpha" operator="in" result="effect1_backgroundBlur_3479_2238" />
            <feBlend mode="normal" in="SourceGraphic" in2="effect1_backgroundBlur_3479_2238" result="shape" />
        </filter>
        <filter id="filter1_d_3479_2238" x="1.33789" y="3.79761" width="18.3516" height="7.23584"
            filterUnits="userSpaceOnUse" color-interpolation-filters="sRGB">
            <feFlood flood-opacity="0" result="BackgroundImageFix" />
            <feColorMatrix in="SourceAlpha" type="matrix" values="0 0 0 0 0 0 0 0 0 0 0 0 0 0 0 0 0 0 127 0"
                result="hardAlpha" />
            <feOffset />
            <feGaussianBlur stdDeviation="0.5" />
            <feComposite in2="hardAlpha" operator="out" />
            <feColorMatrix type="matrix" values="0 0 0 0 0 0 0 0 0 0 0 0 0 0 0 0 0 0 0.5 0" />
            <feBlend mode="normal" in2="BackgroundImageFix" result="effect1_dropShadow_3479_2238" />
            <feBlend mode="normal" in="SourceGraphic" in2="effect1_dropShadow_3479_2238" result="shape" />
        </filter>
        <filter id="filter2_d_3479_2238" x="1.46191" y="10.8359" width="13.2031" height="7.25806"
            filterUnits="userSpaceOnUse" color-interpolation-filters="sRGB">
            <feFlood flood-opacity="0" result="BackgroundImageFix" />
            <feColorMatrix in="SourceAlpha" type="matrix" values="0 0 0 0 0 0 0 0 0 0 0 0 0 0 0 0 0 0 127 0"
                result="hardAlpha" />
            <feOffset />
            <feGaussianBlur stdDeviation="0.5" />
            <feComposite in2="hardAlpha" operator="out" />
            <feColorMatrix type="matrix" values="0 0 0 0 0 0 0 0 0 0 0 0 0 0 0 0 0 0 0.5 0" />
            <feBlend mode="normal" in2="BackgroundImageFix" result="effect1_dropShadow_3479_2238" />
            <feBlend mode="normal" in="SourceGraphic" in2="effect1_dropShadow_3479_2238" result="shape" />
        </filter>
        <filter id="filter3_d_3479_2238" x="13" y="10.5" width="7" height="7" filterUnits="userSpaceOnUse"
            color-interpolation-filters="sRGB">
            <feFlood flood-opacity="0" result="BackgroundImageFix" />
            <feColorMatrix in="SourceAlpha" type="matrix" values="0 0 0 0 0 0 0 0 0 0 0 0 0 0 0 0 0 0 127 0"
                result="hardAlpha" />
            <feOffset />
            <feGaussianBlur stdDeviation="0.5" />
            <feComposite in2="hardAlpha" operator="out" />
            <feColorMatrix type="matrix" values="0 0 0 0 0 0 0 0 0 0 0 0 0 0 0 0 0 0 0.5 0" />
            <feBlend mode="normal" in2="BackgroundImageFix" result="effect1_dropShadow_3479_2238" />
            <feBlend mode="normal" in="SourceGraphic" in2="effect1_dropShadow_3479_2238" result="shape" />
        </filter>
        <linearGradient id="paint0_linear_3479_2238" x1="10.4996" y1="10.4999" x2="-0.000366374" y2="-9.04767e-05"
            gradientUnits="userSpaceOnUse">
            <stop offset="0.5" stop-color="#009765" />
            <stop offset="0.5" stop-color="#14BD8D" />
        </linearGradient>
    </defs>
</svg>