<svg width="34" height="18" viewBox="0 0 34 18" fill="none" xmlns="http://www.w3.org/2000/svg">
    <g filter="url(#filter0_b_228_129020)">
        <path d="M0 8C0 3.58172 3.58172 0 8 0H34V18H0V8Z" fill="url(#paint0_linear_228_129020)" fill-opacity="0.76" />
        <g clip-path="url(#clip0_228_129020)">
            <g filter="url(#filter1_d_228_129020)">
                <path
                    d="M4.73467 6.3182C4.67613 6.36504 4.62887 6.42445 4.59639 6.49203C4.56391 6.55961 4.54704 6.63364 4.54704 6.70862C4.54704 6.7836 4.56391 6.85762 4.59639 6.9252C4.62887 6.99278 4.67613 7.05219 4.73467 7.09903L6.60134 8.59237C6.92884 8.85403 7.41384 8.62153 7.41384 8.20195V7.54195C7.41391 7.43421 7.37224 7.33064 7.29758 7.25297C7.22293 7.17529 7.12109 7.12955 7.01344 7.12535C6.90578 7.12114 6.80069 7.1588 6.7202 7.23042C6.63972 7.30203 6.5901 7.40204 6.58176 7.50945L5.58092 6.70862L6.58051 5.90862V6.08362C6.58051 6.19412 6.62441 6.3001 6.70255 6.37824C6.78069 6.45638 6.88667 6.50028 6.99717 6.50028C7.69864 6.50019 8.37664 6.75287 8.90696 7.21201C9.43727 7.67116 9.78438 8.30603 9.88468 9.00028H9.49717C9.38667 9.00028 9.28069 9.04418 9.20255 9.12232C9.12441 9.20046 9.08051 9.30644 9.08051 9.41695C9.08051 9.52746 9.12441 9.63344 9.20255 9.71158C9.28069 9.78972 9.38667 9.83362 9.49717 9.83362H9.88468C9.79458 10.4569 9.50526 11.0344 9.05993 11.4797C8.6146 11.925 8.03716 12.2144 7.41384 12.3044V11.5003C7.41384 11.3898 7.36994 11.2838 7.2918 11.2057C7.21366 11.1275 7.10768 11.0836 6.99717 11.0836C6.88667 11.0836 6.78069 11.1275 6.70255 11.2057C6.62441 11.2838 6.58051 11.3898 6.58051 11.5003V12.3044C5.95719 12.2144 5.37975 11.925 4.93442 11.4797C4.48909 11.0344 4.19977 10.4569 4.10967 9.83362H4.49717C4.60768 9.83362 4.71366 9.78972 4.7918 9.71158C4.86994 9.63344 4.91384 9.52746 4.91384 9.41695C4.91384 9.30644 4.86994 9.20046 4.7918 9.12232C4.71366 9.04418 4.60768 9.00028 4.49717 9.00028H4.10967C4.14384 8.76403 4.20551 8.53737 4.29217 8.3232C4.31472 8.27214 4.32677 8.21708 4.32763 8.16127C4.32848 8.10547 4.31811 8.05006 4.29714 7.99834C4.27617 7.94662 4.24502 7.89964 4.20555 7.86018C4.16607 7.82073 4.11907 7.78961 4.06733 7.76867C4.0156 7.74773 3.96019 7.7374 3.90438 7.73829C3.84858 7.73918 3.79352 7.75127 3.74248 7.77384C3.69144 7.79641 3.64545 7.82901 3.60725 7.8697C3.56905 7.91039 3.53941 7.95834 3.52009 8.0107C3.22568 8.73872 3.16725 9.5408 3.35305 10.3038C3.53884 11.0668 3.95949 11.7522 4.55564 12.2634C5.1518 12.7746 5.89339 13.0857 6.67581 13.1528C7.45823 13.22 8.24199 13.0399 8.91656 12.6378C9.59112 12.2357 10.1224 11.632 10.4356 10.9119C10.7487 10.1917 10.8278 9.3914 10.6618 8.62385C10.4958 7.8563 10.093 7.16023 9.5103 6.63383C8.92756 6.10742 8.19426 5.77724 7.41384 5.68987V5.21528C7.41384 4.79612 6.92884 4.5632 6.60134 4.82487L4.73467 6.3182Z"
                    fill="white" />
            </g>
        </g>
        <g filter="url(#filter2_d_228_129020)">
            <path
                d="M17.098 8.564C17.026 8.564 16.93 8.56 16.81 8.552C16.694 8.548 16.556 8.542 16.396 8.534L16.348 7.778C16.48 7.786 16.596 7.792 16.696 7.796C16.796 7.8 16.87 7.802 16.918 7.802C17.034 7.802 17.114 7.8 17.158 7.796C17.206 7.788 17.236 7.766 17.248 7.73C17.26 7.694 17.266 7.634 17.266 7.55V6.62H14.92V5.858H17.266V5.474H14.932V4.718H16.258V4.274H15.088V3.542H16.258V2.978H17.2V3.542H18.55V4.274H17.2V4.718H18.802V5.474H18.202V5.858H18.802V6.62H18.202V7.466C18.202 7.718 18.19 7.918 18.166 8.066C18.146 8.218 18.1 8.328 18.028 8.396C17.96 8.468 17.852 8.514 17.704 8.534C17.556 8.554 17.354 8.564 17.098 8.564ZM13.732 8.582V5.642H14.644V8.582H13.732ZM13.318 6.974L13.096 5.996C13.3 5.84 13.48 5.69 13.636 5.546C13.792 5.402 13.938 5.246 14.074 5.078C14.21 4.906 14.352 4.706 14.5 4.478L15.244 4.922C15.124 5.15 14.984 5.37 14.824 5.582C14.664 5.794 14.486 6 14.29 6.2L14.248 5.78C14.208 5.868 14.152 5.968 14.08 6.08C14.012 6.188 13.934 6.298 13.846 6.41C13.762 6.522 13.672 6.628 13.576 6.728C13.484 6.828 13.398 6.91 13.318 6.974ZM16.09 8.066C15.938 7.902 15.778 7.736 15.61 7.568C15.442 7.396 15.274 7.234 15.106 7.082L15.706 6.506C15.874 6.654 16.042 6.816 16.21 6.992C16.378 7.164 16.538 7.332 16.69 7.496L16.09 8.066ZM13.546 4.88L13.186 4.088C13.374 3.976 13.538 3.866 13.678 3.758C13.822 3.65 13.956 3.534 14.08 3.41C14.204 3.286 14.332 3.144 14.464 2.984L15.13 3.458C14.966 3.67 14.806 3.856 14.65 4.016C14.494 4.176 14.328 4.324 14.152 4.46C13.98 4.596 13.778 4.736 13.546 4.88ZM23.182 8.27C22.678 8.27 22.24 8.186 21.868 8.018C21.496 7.854 21.208 7.62 21.004 7.316C20.8 7.012 20.698 6.654 20.698 6.242C20.698 5.954 20.746 5.686 20.842 5.438C20.938 5.19 21.076 4.97 21.256 4.778C21.44 4.582 21.658 4.426 21.91 4.31L22.006 4.502L19.396 4.562V3.692L24.514 3.572V4.442L23.746 4.46C23.47 4.464 23.21 4.506 22.966 4.586C22.722 4.666 22.508 4.78 22.324 4.928C22.14 5.072 21.996 5.246 21.892 5.45C21.792 5.654 21.742 5.884 21.742 6.14C21.742 6.404 21.798 6.628 21.91 6.812C22.022 6.992 22.186 7.132 22.402 7.232C22.622 7.328 22.884 7.376 23.188 7.376C23.3 7.376 23.426 7.37 23.566 7.358C23.706 7.346 23.836 7.328 23.956 7.304L24.064 8.198C23.916 8.222 23.764 8.24 23.608 8.252C23.456 8.264 23.314 8.27 23.182 8.27ZM28.18 8.33C27.728 8.33 27.372 8.224 27.112 8.012C26.856 7.8 26.728 7.506 26.728 7.13C26.728 6.75 26.856 6.456 27.112 6.248C27.368 6.036 27.724 5.93 28.18 5.93C28.368 5.93 28.548 5.954 28.72 6.002C28.892 6.05 29.072 6.134 29.26 6.254C29.448 6.37 29.66 6.534 29.896 6.746C30.136 6.958 30.42 7.23 30.748 7.562L30.16 8.204C29.868 7.904 29.62 7.66 29.416 7.472C29.216 7.28 29.042 7.132 28.894 7.028C28.75 6.924 28.618 6.852 28.498 6.812C28.378 6.772 28.256 6.752 28.132 6.752C27.776 6.752 27.598 6.878 27.598 7.13C27.598 7.382 27.776 7.508 28.132 7.508C28.324 7.508 28.46 7.47 28.54 7.394C28.62 7.318 28.66 7.194 28.66 7.022V4.718V3.452H29.608V4.718V7.07C29.608 7.478 29.484 7.79 29.236 8.006C28.988 8.222 28.636 8.33 28.18 8.33ZM25.6 8.408C25.504 8 25.432 7.592 25.384 7.184C25.336 6.776 25.312 6.348 25.312 5.9C25.312 5.452 25.336 5.026 25.384 4.622C25.432 4.214 25.504 3.806 25.6 3.398L26.56 3.506C26.468 3.886 26.398 4.276 26.35 4.676C26.306 5.072 26.284 5.48 26.284 5.9C26.284 6.32 26.306 6.73 26.35 7.13C26.398 7.526 26.468 7.914 26.56 8.294L25.6 8.408ZM26.812 5.048V4.232H30.64V5.048H26.812ZM29.374 4.172C29.338 3.976 29.296 3.792 29.248 3.62C29.204 3.444 29.15 3.268 29.086 3.092L29.74 2.936C29.808 3.108 29.864 3.284 29.908 3.464C29.952 3.64 29.992 3.83 30.028 4.034L29.374 4.172ZM30.286 4.094C30.254 3.898 30.216 3.714 30.172 3.542C30.132 3.366 30.08 3.188 30.016 3.008L30.664 2.87C30.728 3.046 30.782 3.224 30.826 3.404C30.87 3.584 30.906 3.774 30.934 3.974L30.286 4.094Z"
                fill="white" />
        </g>
        <g filter="url(#filter3_d_228_129020)">
            <path
                d="M13.59 14.034V13.302H14.112V12.636H13.47V11.832H14.112V10.71H14.958V11.832H19.05V12.636H14.958V13.302H17.562V11.202H17.232V13.302H16.428V11.202H16.092V13.302H15.288V11.202H14.52V10.446H18.81V11.202H18.408V13.302H18.93V14.034H13.59ZM14.19 15.648L13.464 15.198C13.616 14.998 13.754 14.804 13.878 14.616C14.002 14.428 14.122 14.232 14.238 14.028L14.994 14.4C14.782 14.82 14.514 15.236 14.19 15.648ZM15.318 15.624C15.298 15.412 15.272 15.2 15.24 14.988C15.208 14.772 15.172 14.544 15.132 14.304L16.014 14.214C16.058 14.446 16.094 14.672 16.122 14.892C16.154 15.112 16.182 15.326 16.206 15.534L15.318 15.624ZM16.752 15.618C16.696 15.41 16.632 15.2 16.56 14.988C16.492 14.776 16.416 14.554 16.332 14.322L17.184 14.148C17.268 14.38 17.344 14.604 17.412 14.82C17.484 15.032 17.548 15.24 17.604 15.444L16.752 15.618ZM14.274 11.814L13.458 11.4C13.682 11.16 13.886 10.918 14.07 10.674C14.254 10.426 14.422 10.172 14.574 9.912L15.468 10.098C15.32 10.398 15.144 10.696 14.94 10.992C14.736 11.288 14.514 11.562 14.274 11.814ZM18.306 15.618C18.19 15.418 18.07 15.218 17.946 15.018C17.822 14.822 17.684 14.614 17.532 14.394L18.282 13.998C18.426 14.21 18.562 14.418 18.69 14.622C18.822 14.826 18.944 15.026 19.056 15.222L18.306 15.618ZM20.742 15.582V12.768H19.962V12.018H20.766V10.098H21.564V12.018H22.26V12.768H21.582V15.582H20.742ZM20.166 15.042L19.818 14.106C20.058 13.81 20.25 13.508 20.394 13.2C20.542 12.892 20.652 12.566 20.724 12.222L21.048 12.45C21.028 12.794 20.976 13.13 20.892 13.458C20.812 13.782 20.708 14.08 20.58 14.352C20.456 14.624 20.318 14.854 20.166 15.042ZM21.894 14.424C21.766 14.12 21.636 13.818 21.504 13.518C21.376 13.214 21.238 12.896 21.09 12.564L21.588 12.294C21.732 12.57 21.872 12.842 22.008 13.11C22.144 13.374 22.282 13.648 22.422 13.932L21.894 14.424ZM20.232 11.928C20.176 11.7 20.116 11.466 20.052 11.226C19.988 10.986 19.926 10.768 19.866 10.572L20.478 10.35C20.542 10.55 20.602 10.768 20.658 11.004C20.718 11.236 20.772 11.472 20.82 11.712L20.232 11.928ZM22.248 14.82L22.17 14.016L25.602 13.374L25.68 14.178L22.248 14.82ZM23.394 13.59C23.218 13.398 23.03 13.198 22.83 12.99C22.63 12.782 22.418 12.574 22.194 12.366L22.818 11.79C23.042 11.994 23.254 12.198 23.454 12.402C23.658 12.602 23.846 12.8 24.018 12.996L23.394 13.59ZM22.074 11.934L21.462 11.688C21.542 11.476 21.614 11.248 21.678 11.004C21.742 10.76 21.792 10.532 21.828 10.32L22.488 10.464C22.44 10.696 22.378 10.942 22.302 11.202C22.23 11.458 22.154 11.702 22.074 11.934ZM24.216 15.582V10.098H25.146V15.582H24.216ZM23.634 11.994C23.482 11.822 23.318 11.646 23.142 11.466C22.966 11.286 22.782 11.104 22.59 10.92L23.214 10.35C23.406 10.526 23.59 10.702 23.766 10.878C23.942 11.054 24.106 11.226 24.258 11.394L23.634 11.994Z"
                fill="white" />
        </g>
        <g filter="url(#filter4_d_228_129020)">
            <path
                d="M29.4935 13.7161C29.6176 13.4342 29.8292 13.1997 30.097 13.0476C30.137 13.0251 30.137 12.9676 30.097 12.9451C29.8291 12.7928 29.6174 12.5583 29.4933 12.2763C29.4885 12.2657 29.4808 12.2567 29.471 12.2503C29.4613 12.244 29.4499 12.2406 29.4383 12.2406C29.4266 12.2406 29.4153 12.244 29.4055 12.2503C29.3957 12.2567 29.388 12.2657 29.3833 12.2763C29.2591 12.5582 29.0474 12.7927 28.7795 12.9448C28.7705 12.95 28.763 12.9574 28.7577 12.9664C28.7525 12.9754 28.7498 12.9856 28.7498 12.9961C28.7498 13.0065 28.7525 13.0167 28.7577 13.0257C28.763 13.0347 28.7705 13.0421 28.7795 13.0473C29.0475 13.1996 29.2592 13.4342 29.3833 13.7163C29.388 13.7269 29.3957 13.7359 29.4055 13.7423C29.4153 13.7486 29.4266 13.752 29.4383 13.752C29.4499 13.752 29.4613 13.7486 29.471 13.7423C29.4808 13.7359 29.4885 13.7269 29.4933 13.7163L29.4935 13.7161Z"
                fill="white" />
            <path
                d="M28.0806 11.9464C28.2608 11.5267 28.5681 11.1777 28.9569 10.9512C29.015 10.9177 29.015 10.8321 28.9569 10.7986C28.5679 10.572 28.2604 10.2228 28.0802 9.80296C28.0733 9.78715 28.0621 9.77373 28.0479 9.76431C28.0337 9.75489 28.0172 9.74988 28.0003 9.74988C27.9834 9.74988 27.9669 9.75489 27.9527 9.76431C27.9386 9.77373 27.9273 9.78715 27.9205 9.80296C27.7402 10.2227 27.4327 10.5717 27.0437 10.7982C27.0306 10.8059 27.0197 10.817 27.0121 10.8304C27.0045 10.8438 27.0005 10.859 27.0005 10.8745C27.0005 10.89 27.0045 10.9052 27.0121 10.9186C27.0197 10.932 27.0306 10.9431 27.0437 10.9508C27.4328 11.1775 27.7403 11.5268 27.9205 11.9468C27.9273 11.9626 27.9386 11.976 27.9527 11.9854C27.9669 11.9949 27.9834 11.9999 28.0003 11.9999C28.0172 11.9999 28.0337 11.9949 28.0479 11.9854C28.0621 11.976 28.0733 11.9626 28.0802 11.9468L28.0806 11.9464Z"
                fill="white" />
        </g>
    </g>
    <defs>
        <filter id="filter0_b_228_129020" x="-2" y="-2" width="38" height="22" filterUnits="userSpaceOnUse"
            color-interpolation-filters="sRGB">
            <feFlood flood-opacity="0" result="BackgroundImageFix" />
            <feGaussianBlur in="BackgroundImageFix" stdDeviation="1" />
            <feComposite in2="SourceAlpha" operator="in" result="effect1_backgroundBlur_228_129020" />
            <feBlend mode="normal" in="SourceGraphic" in2="effect1_backgroundBlur_228_129020" result="shape" />
        </filter>
        <filter id="filter1_d_228_129020" x="2.33749" y="3.80539" width="9.31818" height="10.2703"
            filterUnits="userSpaceOnUse" color-interpolation-filters="sRGB">
            <feFlood flood-opacity="0" result="BackgroundImageFix" />
            <feColorMatrix in="SourceAlpha" type="matrix" values="0 0 0 0 0 0 0 0 0 0 0 0 0 0 0 0 0 0 127 0"
                result="hardAlpha" />
            <feOffset />
            <feGaussianBlur stdDeviation="0.454545" />
            <feComposite in2="hardAlpha" operator="out" />
            <feColorMatrix type="matrix" values="0 0 0 0 0 0 0 0 0 0 0 0 0 0 0 0 0 0 0.5 0" />
            <feBlend mode="normal" in2="BackgroundImageFix" result="effect1_dropShadow_228_129020" />
            <feBlend mode="normal" in="SourceGraphic" in2="effect1_dropShadow_228_129020" result="shape" />
        </filter>
        <filter id="filter2_d_228_129020" x="12.0959" y="1.87" width="19.8381" height="7.71204"
            filterUnits="userSpaceOnUse" color-interpolation-filters="sRGB">
            <feFlood flood-opacity="0" result="BackgroundImageFix" />
            <feColorMatrix in="SourceAlpha" type="matrix" values="0 0 0 0 0 0 0 0 0 0 0 0 0 0 0 0 0 0 127 0"
                result="hardAlpha" />
            <feOffset />
            <feGaussianBlur stdDeviation="0.5" />
            <feComposite in2="hardAlpha" operator="out" />
            <feColorMatrix type="matrix" values="0 0 0 0 0 0 0 0 0 0 0 0 0 0 0 0 0 0 0.5 0" />
            <feBlend mode="normal" in2="BackgroundImageFix" result="effect1_dropShadow_228_129020" />
            <feBlend mode="normal" in="SourceGraphic" in2="effect1_dropShadow_228_129020" result="shape" />
        </filter>
        <filter id="filter3_d_228_129020" x="12.458" y="8.91199" width="14.2219" height="7.73596"
            filterUnits="userSpaceOnUse" color-interpolation-filters="sRGB">
            <feFlood flood-opacity="0" result="BackgroundImageFix" />
            <feColorMatrix in="SourceAlpha" type="matrix" values="0 0 0 0 0 0 0 0 0 0 0 0 0 0 0 0 0 0 127 0"
                result="hardAlpha" />
            <feOffset />
            <feGaussianBlur stdDeviation="0.5" />
            <feComposite in2="hardAlpha" operator="out" />
            <feColorMatrix type="matrix" values="0 0 0 0 0 0 0 0 0 0 0 0 0 0 0 0 0 0 0.5 0" />
            <feBlend mode="normal" in2="BackgroundImageFix" result="effect1_dropShadow_228_129020" />
            <feBlend mode="normal" in="SourceGraphic" in2="effect1_dropShadow_228_129020" result="shape" />
        </filter>
        <filter id="filter4_d_228_129020" x="25" y="8" width="7" height="7" filterUnits="userSpaceOnUse"
            color-interpolation-filters="sRGB">
            <feFlood flood-opacity="0" result="BackgroundImageFix" />
            <feColorMatrix in="SourceAlpha" type="matrix" values="0 0 0 0 0 0 0 0 0 0 0 0 0 0 0 0 0 0 127 0"
                result="hardAlpha" />
            <feOffset />
            <feGaussianBlur stdDeviation="0.5" />
            <feComposite in2="hardAlpha" operator="out" />
            <feColorMatrix type="matrix" values="0 0 0 0 0 0 0 0 0 0 0 0 0 0 0 0 0 0 0.5 0" />
            <feBlend mode="normal" in2="BackgroundImageFix" result="effect1_dropShadow_228_129020" />
            <feBlend mode="normal" in="SourceGraphic" in2="effect1_dropShadow_228_129020" result="shape" />
        </filter>
        <linearGradient id="paint0_linear_228_129020" x1="10" y1="9.5" x2="4.50002" y2="3.99999"
            gradientUnits="userSpaceOnUse">
            <stop offset="0.5" stop-color="#009765" />
            <stop offset="0.5" stop-color="#14BD8D" />
        </linearGradient>
        <clipPath id="clip0_228_129020">
            <rect width="10" height="10" fill="white" transform="translate(2 4)" />
        </clipPath>
    </defs>
</svg>