<svg width="40" height="40" viewBox="0 0 40 40" fill="none" xmlns="http://www.w3.org/2000/svg">
<rect width="40" height="40" rx="20" fill="#F4F4F4"/>
<path d="M20.2227 13.6349C21.0547 13.6349 22.0977 13.0551 22.7188 12.282C23.2812 11.5815 23.6914 10.6031 23.6914 9.62469C23.6914 9.49182 23.6797 9.35895 23.6562 9.25024C22.7305 9.28648 21.6172 9.89042 20.9492 10.6997C20.4219 11.3157 19.9414 12.282 19.9414 13.2725C19.9414 13.4174 19.9648 13.5624 19.9766 13.6107C20.0352 13.6228 20.1289 13.6349 20.2227 13.6349ZM17.293 28.2502C18.4297 28.2502 18.9336 27.4651 20.3516 27.4651C21.793 27.4651 22.1094 28.2261 23.375 28.2261C24.6172 28.2261 25.4492 27.0424 26.2344 25.8828C27.1133 24.5541 27.4766 23.2496 27.5 23.1892C27.418 23.1651 25.0391 22.1625 25.0391 19.3481C25.0391 16.9082 26.9141 15.809 27.0195 15.7245C25.7773 13.8885 23.8906 13.8402 23.375 13.8402C21.9805 13.8402 20.8438 14.7099 20.1289 14.7099C19.3555 14.7099 18.3359 13.8885 17.1289 13.8885C14.832 13.8885 12.5 15.8453 12.5 19.5414C12.5 21.8364 13.3672 24.2642 14.4336 25.8345C15.3477 27.1631 16.1445 28.2502 17.293 28.2502Z" fill="black"/>
</svg>
