<svg xmlns="http://www.w3.org/2000/svg" width="40" height="40" viewBox="0 0 40 40" fill="none">
<g clip-path="url(#clip0_550_54719)">
<path d="M20 40C31.0457 40 40 31.0457 40 20C40 8.9543 31.0457 0 20 0C8.9543 0 0 8.9543 0 20C0 31.0457 8.9543 40 20 40Z" fill="#4CC764"/>
<path d="M33.3378 18.835C33.3378 12.86 27.3478 8 19.9865 8C12.6253 8 6.63525 12.8612 6.63525 18.835C6.63525 24.1913 11.3853 28.6763 17.8015 29.525C18.2365 29.6188 18.8278 29.8113 18.9778 30.1838C19.1128 30.5213 19.0653 31.05 19.0215 31.3913C19.0215 31.3913 18.8653 32.3338 18.8315 32.5338C18.7728 32.8713 18.5628 33.8538 19.9878 33.2538C21.4128 32.6538 27.6765 28.7263 30.4778 25.5025C32.4128 23.38 33.3403 21.2275 33.3403 18.8363L33.3378 18.835Z" fill="white"/>
<path d="M28.8961 22.285C29.0374 22.285 29.1511 22.1713 29.1511 22.03V21.0825C29.1511 20.9425 29.0361 20.8275 28.8961 20.8275H26.3474V19.8438H28.8961C29.0374 19.8438 29.1511 19.73 29.1511 19.5888V18.6425C29.1511 18.5025 29.0361 18.3875 28.8961 18.3875H26.3474V17.4038H28.8961C29.0374 17.4038 29.1511 17.29 29.1511 17.1488V16.2025C29.1511 16.0625 29.0361 15.9475 28.8961 15.9475H25.1449C25.0036 15.9475 24.8899 16.0613 24.8899 16.2025V16.2075V22.025V22.03C24.8899 22.1713 25.0036 22.285 25.1449 22.285H28.8961Z" fill="#4CC764"/>
<path d="M15.0211 22.285C15.1624 22.285 15.2761 22.1713 15.2761 22.03V21.0825C15.2761 20.9425 15.1611 20.8275 15.0211 20.8275H12.4724V16.2025C12.4724 16.0625 12.3574 15.9475 12.2174 15.9475H11.2699C11.1286 15.9475 11.0149 16.0613 11.0149 16.2025V22.025V22.03C11.0149 22.1713 11.1286 22.285 11.2699 22.285H15.0211Z" fill="#4CC764"/>
<path d="M17.2791 15.9475H16.3329C16.192 15.9475 16.0779 16.0617 16.0779 16.2025V22.0288C16.0779 22.1696 16.192 22.2838 16.3329 22.2838H17.2791C17.42 22.2838 17.5341 22.1696 17.5341 22.0288V16.2025C17.5341 16.0617 17.42 15.9475 17.2791 15.9475Z" fill="#4CC764"/>
<path d="M23.7251 15.9475H22.7776C22.6363 15.9475 22.5226 16.0613 22.5226 16.2025V19.6638L19.8563 16.0638C19.8501 16.055 19.8426 16.0463 19.8363 16.0375C19.8363 16.0375 19.8363 16.0375 19.8351 16.0363C19.8301 16.0313 19.8251 16.025 19.8201 16.02C19.8188 16.0188 19.8163 16.0175 19.8151 16.0163C19.8101 16.0125 19.8063 16.0088 19.8013 16.005C19.7988 16.0038 19.7963 16.0013 19.7938 16C19.7901 15.9963 19.7851 15.9938 19.7801 15.9913C19.7776 15.99 19.7751 15.9875 19.7726 15.9863C19.7676 15.9838 19.7638 15.9813 19.7588 15.9788C19.7563 15.9775 19.7538 15.9763 19.7513 15.975C19.7463 15.9725 19.7413 15.97 19.7363 15.9688C19.7338 15.9688 19.7313 15.9663 19.7276 15.9663C19.7226 15.965 19.7176 15.9625 19.7126 15.9613C19.7101 15.9613 19.7063 15.96 19.7038 15.9588C19.6988 15.9588 19.6938 15.9563 19.6888 15.955C19.6851 15.955 19.6813 15.955 19.6776 15.9538C19.6726 15.9538 19.6688 15.9525 19.6638 15.9525C19.6588 15.9525 19.6551 15.9525 19.6501 15.9525C19.6476 15.9525 19.6438 15.9525 19.6413 15.9525H18.7001C18.5588 15.9525 18.4451 16.0663 18.4451 16.2075V22.035C18.4451 22.1763 18.5588 22.29 18.7001 22.29H19.6476C19.7888 22.29 19.9026 22.1763 19.9026 22.035V18.575L22.5713 22.18C22.5901 22.2063 22.6126 22.2275 22.6376 22.2438C22.6376 22.2438 22.6401 22.245 22.6401 22.2463C22.6451 22.25 22.6501 22.2525 22.6563 22.2563C22.6588 22.2575 22.6613 22.2588 22.6638 22.26C22.6676 22.2625 22.6726 22.2638 22.6763 22.2663C22.6801 22.2688 22.6851 22.27 22.6888 22.2713C22.6913 22.2713 22.6938 22.2738 22.6963 22.2738C22.7026 22.2763 22.7076 22.2775 22.7138 22.2788C22.7138 22.2788 22.7163 22.2788 22.7176 22.2788C22.7388 22.2838 22.7613 22.2875 22.7838 22.2875H23.7251C23.8663 22.2875 23.9801 22.1738 23.9801 22.0325V16.205C23.9801 16.0638 23.8663 15.95 23.7251 15.95V15.9475Z" fill="#4CC764"/>
</g>
<defs>
<clipPath id="clip0_550_54719">
<rect width="40" height="40" fill="white"/>
</clipPath>
</defs>
</svg>