<svg width="112" height="48" viewBox="0 0 112 48" fill="none" xmlns="http://www.w3.org/2000/svg">
<g clip-path="url(#clip0_550_54695)">
<path d="M12.8567 33.757V41.0914H0.277344V46.9096H18.718V27.7725H0.277344V33.757H12.8567Z" fill="white"/>
<path d="M42.2493 27.7791H22.6191V32.7837H42.2493V27.7791Z" fill="white"/>
<path d="M41.8179 34.8533L23.0938 34.804V39.7223L41.8179 39.9257V34.8533Z" fill="white"/>
<path d="M42.2493 41.9058H22.6191V46.9042H42.2493V41.9058Z" fill="white"/>
<path d="M107.291 39.7541L107.507 39.4028C108.789 37.3011 109.498 34.8543 109.498 32.5122V27.7788H92.0495V33.2333H103.045V34.0654C103.045 36.2411 100.167 40.6971 91.3037 40.8142V46.9098C95.766 46.8666 99.5749 45.9298 102.632 44.1424L102.823 44.0315L103.008 44.1548C105.529 45.8867 107.174 46.6694 112 46.7064V40.6725C110.293 40.6417 108.906 40.4013 107.674 39.9144L107.291 39.7603V39.7541Z" fill="white"/>
<path d="M46.7368 31.8579V37.9719H50.6875L50.4964 31.8579H46.7368Z" fill="white"/>
<path d="M52.2949 31.8579L52.4059 37.7932H56.0854L55.8512 31.8579H52.2949Z" fill="white"/>
<path d="M50.392 42.2075H47.7109V47.0827H50.392C59.6246 47.0827 64.5122 43.434 64.5122 36.5372V30.8423H59.4521V36.5372C59.4521 37.5788 59.2795 38.4293 58.9282 39.1443L58.8542 39.2614C57.7448 41.3261 55.2179 42.2075 50.3981 42.2075H50.392Z" fill="white"/>
<path d="M31.1548 7.90845H22.4521V12.1118H31.1548V7.90845Z" fill="white"/>
<path d="M31.1548 1.36841H22.4521V5.57179H31.1548V1.36841Z" fill="white"/>
<path d="M53.9409 2.28101H45.2383V7.24865H53.9409V2.28101Z" fill="white"/>
<path d="M64.7955 1.97247H59.1684V8.1851C59.1684 9.83071 57.8864 14.521 52.1915 14.521H45.2393V20.4933H52.1237C56.2655 20.4933 59.4642 19.3654 61.6399 17.1404C64.6168 14.0896 64.8386 9.83071 64.8017 8.14196V1.96631L64.7955 1.97247Z" fill="white"/>
<path d="M38.8095 17.1405C41.7864 14.0896 42.0144 9.83079 41.9713 8.14204V8.04959V5.73218H36.3442V8.18518C36.3442 9.83079 35.0622 14.5211 29.3673 14.5211H22.415V20.4933H29.2995C33.4412 20.4933 36.64 19.3655 38.8157 17.1405H38.8095Z" fill="white"/>
<path d="M7.03235 14.6571C6.88443 14.6571 6.21263 14.6448 6.21263 14.6448V0.980713H0.277344V20.4938H7.00153C16.6595 20.4938 18.7735 12.728 19.1371 7.82817H13.3374C12.5424 13.7573 9.06009 14.651 7.03235 14.651V14.6571Z" fill="white"/>
<path d="M68.6846 32.5121V37.3379C69.9296 37.1839 72.4812 36.395 75.3533 32.7709L75.4581 32.6415H82.0836V35.0698C82.0898 35.1623 82.2624 37.9296 80.4812 39.8402C79.4088 40.9928 77.8679 41.5783 75.9018 41.5783H69.3934V46.8603L75.5074 46.9157C82.4473 46.9157 87.8895 42.4782 87.8895 36.8141V27.7725H72.4504C72.1545 30.3241 69.4427 32.0806 68.6969 32.5244L68.6846 32.5121Z" fill="white"/>
<path d="M38.8038 0.918457H36.4248V4.19118H38.8038V0.918457Z" fill="white"/>
<path d="M41.9044 0.918701H39.5254V4.19143H41.9044V0.918701Z" fill="white"/>
</g>
<defs>
<clipPath id="clip0_550_54695">
<rect width="111.723" height="46.1633" fill="white" transform="translate(0.277344 0.918457)"/>
</clipPath>
</defs>
</svg>
