<svg width="30" height="20" viewBox="0 0 30 20" fill="none" xmlns="http://www.w3.org/2000/svg">
<rect x="0.5" y="1" width="29" height="18" rx="2.5" stroke="#ED1C24"/>
<path d="M7.377 7.933H8.246V13.84C8.246 14.0087 8.26433 14.1407 8.301 14.236C8.33767 14.324 8.411 14.3863 8.521 14.423C8.631 14.4523 8.78867 14.467 8.994 14.467C9.06733 14.467 9.19933 14.467 9.39 14.467C9.58067 14.467 9.78967 14.467 10.017 14.467C10.2517 14.467 10.468 14.467 10.666 14.467C10.8713 14.467 11.0217 14.467 11.117 14.467C11.337 14.467 11.4983 14.412 11.601 14.302C11.711 14.192 11.788 13.9867 11.832 13.686C11.8833 13.378 11.92 12.9307 11.942 12.344C12.0153 12.3953 12.0997 12.4467 12.195 12.498C12.2903 12.5493 12.3857 12.5933 12.481 12.63C12.5837 12.6667 12.6753 12.696 12.756 12.718C12.712 13.378 12.6423 13.895 12.547 14.269C12.4517 14.643 12.2977 14.9033 12.085 15.05C11.8723 15.204 11.5643 15.281 11.161 15.281C11.1097 15.281 11.007 15.281 10.853 15.281C10.699 15.281 10.523 15.281 10.325 15.281C10.1343 15.281 9.94 15.281 9.742 15.281C9.55133 15.281 9.379 15.281 9.225 15.281C9.07833 15.281 8.97933 15.281 8.928 15.281C8.532 15.281 8.22033 15.2407 7.993 15.16C7.76567 15.0793 7.60433 14.9327 7.509 14.72C7.421 14.5073 7.377 14.2103 7.377 13.829V7.933ZM7.41 5.876L7.949 5.293C8.257 5.491 8.587 5.71833 8.939 5.975C9.291 6.22433 9.62467 6.47 9.94 6.712C10.2553 6.94667 10.5193 7.152 10.732 7.328L10.182 7.988C9.962 7.79733 9.69433 7.581 9.379 7.339C9.071 7.08967 8.741 6.83667 8.389 6.58C8.04433 6.316 7.718 6.08133 7.41 5.876ZM5.617 8.582L6.398 8.791C6.31733 9.19433 6.21833 9.627 6.101 10.089C5.98367 10.551 5.84433 10.9983 5.683 11.431C5.52167 11.8563 5.33833 12.2303 5.133 12.553L4.341 12.234C4.55367 11.9187 4.74067 11.5557 4.902 11.145C5.07067 10.727 5.21367 10.2943 5.331 9.847C5.45567 9.39967 5.551 8.978 5.617 8.582ZM12.129 9.297L12.866 8.967C13.1153 9.32633 13.361 9.71867 13.603 10.144C13.845 10.562 14.0577 10.9763 14.241 11.387C14.4317 11.7903 14.5783 12.1533 14.681 12.476L13.889 12.861C13.7937 12.531 13.6543 12.1607 13.471 11.75C13.2877 11.3393 13.0787 10.9213 12.844 10.496C12.6093 10.0633 12.371 9.66367 12.129 9.297ZM12.701 5.909L13.526 6.25C13.0713 7.108 12.5507 7.944 11.964 8.758C11.3773 9.572 10.7247 10.3457 10.006 11.079C9.28733 11.805 8.499 12.4797 7.641 13.103C6.79033 13.719 5.87367 14.2617 4.891 14.731C4.85433 14.665 4.803 14.5917 4.737 14.511C4.67833 14.4303 4.61233 14.3533 4.539 14.28C4.473 14.1993 4.41067 14.1297 4.352 14.071C5.30533 13.6457 6.2 13.136 7.036 12.542C7.872 11.9407 8.64567 11.2843 9.357 10.573C10.0683 9.85433 10.7027 9.10267 11.26 8.318C11.8247 7.526 12.305 6.723 12.701 5.909ZM18.201 5.447L18.982 5.777C18.7253 6.07767 18.432 6.37467 18.102 6.668C17.772 6.96133 17.4273 7.23633 17.068 7.493C16.716 7.74233 16.375 7.96233 16.045 8.153C15.9717 8.065 15.8763 7.966 15.759 7.856C15.649 7.73867 15.539 7.64333 15.429 7.57C15.7443 7.40133 16.0743 7.20333 16.419 6.976C16.7637 6.74133 17.0937 6.492 17.409 6.228C17.7243 5.964 17.9883 5.70367 18.201 5.447ZM18.399 8.538L19.158 8.857C18.916 9.187 18.6263 9.50967 18.289 9.825C17.959 10.1403 17.6107 10.4373 17.244 10.716C16.8847 10.9873 16.529 11.222 16.177 11.42C16.1037 11.3247 16.012 11.2183 15.902 11.101C15.792 10.9763 15.682 10.8737 15.572 10.793C15.9093 10.617 16.254 10.408 16.606 10.166C16.958 9.924 17.2917 9.66367 17.607 9.385C17.9297 9.10633 18.1937 8.824 18.399 8.538ZM18.641 11.618L19.411 11.915C19.1543 12.355 18.8463 12.7767 18.487 13.18C18.1277 13.576 17.7353 13.9427 17.31 14.28C16.8847 14.61 16.4447 14.896 15.99 15.138C15.924 15.0353 15.8323 14.918 15.715 14.786C15.605 14.6613 15.495 14.555 15.385 14.467C15.825 14.269 16.2467 14.0233 16.65 13.73C17.0607 13.4293 17.4383 13.0993 17.783 12.74C18.135 12.3807 18.421 12.0067 18.641 11.618ZM19.301 5.799H25.494V6.514H19.301V5.799ZM20.599 9.836V10.914H24.295V9.836H20.599ZM20.599 11.519V12.608H24.295V11.519H20.599ZM20.599 8.175V9.231H24.295V8.175H20.599ZM19.818 7.526H25.109V13.246H19.818V7.526ZM21.963 6.129L22.898 6.261C22.81 6.57633 22.711 6.89533 22.601 7.218C22.4983 7.54067 22.3957 7.81933 22.293 8.054L21.556 7.9C21.6293 7.65067 21.7027 7.361 21.776 7.031C21.8567 6.69367 21.919 6.393 21.963 6.129ZM21.05 13.488L21.765 13.939C21.5303 14.1223 21.2553 14.3057 20.94 14.489C20.6247 14.6723 20.2983 14.841 19.961 14.995C19.6237 15.149 19.29 15.281 18.96 15.391C18.9013 15.303 18.8207 15.2003 18.718 15.083C18.6153 14.973 18.5237 14.8813 18.443 14.808C18.7583 14.698 19.081 14.5733 19.411 14.434C19.7483 14.2873 20.06 14.1333 20.346 13.972C20.6393 13.8033 20.874 13.642 21.05 13.488ZM22.909 13.972L23.536 13.521C23.7853 13.6457 24.0457 13.7887 24.317 13.95C24.5957 14.1113 24.8633 14.2763 25.12 14.445C25.3767 14.6137 25.5893 14.7677 25.758 14.907L25.098 15.402C24.944 15.2627 24.7423 15.1087 24.493 14.94C24.251 14.7713 23.9907 14.6027 23.712 14.434C23.4333 14.258 23.1657 14.104 22.909 13.972Z" fill="#ED1C24"/>
</svg>
